<?xml version="1.0" encoding="UTF-8" standalone="no"?>
<!-- Created with Inkscape (http://www.inkscape.org/) -->

<svg
   width="269.70676mm"
   height="296.7164mm"
   viewBox="0 0 269.70676 296.7164"
   version="1.1"
   id="svg1"
   xml:space="preserve"
   xmlns="http://www.w3.org/2000/svg"
   xmlns:svg="http://www.w3.org/2000/svg"><defs
     id="defs1" /><g
     id="layer1"
     transform="translate(335.27106,-157.33981)"><path
       style="fill:#000000"
       d="m -197.6256,453.98354 c -0.7153,-0.13528 -0.7857,-0.29209 -0.57164,-1.27339 0.3161,-1.44909 2.7111,-8.39325 3.64067,-10.55591 0.70058,-1.62991 0.76196,-1.67569 2.24668,-1.67569 1.52643,0 1.52643,0 3.51213,4.14514 2.1983,4.58891 3.45319,7.62493 3.45319,8.35447 0,0.30228 -0.52728,0.52934 -1.42885,0.61532 -1.2471,0.11893 -1.48314,0.0227 -1.85565,-0.7567 -0.39425,-0.82487 -0.6326,-0.90077 -3.12609,-0.99543 -2.6993,-0.10247 -2.6993,-0.10247 -2.93488,0.97014 -0.12958,0.58994 -0.44812,1.07261 -0.70787,1.07261 -0.25976,0 -0.68371,0.0571 -0.94211,0.12686 -0.25841,0.0698 -0.83692,0.0574 -1.28558,-0.0274 z m 6.9521,-5.25365 c 0.30629,-0.26798 -1.10516,-3.30212 -1.43988,-3.09525 -0.44191,0.27311 -1.34508,2.38072 -1.34508,3.13884 0,0.45038 0.25223,0.51088 1.32292,0.31731 0.7276,-0.13155 1.38552,-0.29395 1.46204,-0.3609 z m -22.5836,4.86745 c -0.0237,-0.13332 -0.008,-1.71084 0.0349,-3.5056 0.0429,-1.79476 -0.0568,-3.2676 -0.22149,-3.27298 -0.16471,-0.005 -1.10988,0.89357 -2.10037,1.99767 -1.17538,1.3102 -1.98477,1.93689 -2.33029,1.8043 -0.29117,-0.11173 -1.02994,-1.09006 -1.64171,-2.17406 -0.61177,-1.08399 -1.25249,-1.9709 -1.42383,-1.9709 -0.37353,0 -0.60662,0.90465 -0.93167,3.61597 -0.24318,2.02847 -0.24318,2.02847 -1.79003,2.02847 -1.85965,0 -1.87327,-0.0775 -0.87685,-4.98825 0.36851,-1.81611 0.78239,-4.46184 0.91973,-5.87939 0.24972,-2.57737 0.24972,-2.57737 1.35847,-2.33977 1.48669,0.3186 1.43668,0.27563 2.54106,2.18327 0.53351,0.92154 1.44741,2.28649 2.03088,3.03321 0.98915,1.2659 1.08682,1.31161 1.44467,0.67618 0.52482,-0.93192 1.59447,-2.16321 3.08634,-3.55274 1.02524,-0.95491 1.42793,-1.12194 2.22348,-0.92227 0.97149,0.24383 0.97149,0.24383 0.84115,6.52037 -0.0717,3.4521 -0.20801,6.34497 -0.30293,6.42859 -0.32267,0.28428 -2.8182,0.56155 -2.8615,0.31793 z m 32.73021,-1.70973 c -0.10522,-0.55117 -0.44507,-2.58962 -0.75523,-4.5299 -0.31016,-1.94027 -0.72712,-4.45602 -0.92658,-5.59054 -0.19946,-1.13452 -0.31194,-2.10905 -0.24995,-2.16561 0.062,-0.0566 1.81841,-0.30906 3.90318,-0.56111 3.42918,-0.41458 3.91021,-0.40116 5.04658,0.14073 2.27638,1.08553 2.9498,4.70753 1.28499,6.91127 -0.68934,0.91249 -0.68934,0.91249 1.10362,2.81866 1.60758,1.70908 1.72178,1.93164 1.10448,2.1524 -2.22023,0.79401 -2.43111,0.74152 -4.30109,-1.07046 -1.03685,-1.0047 -2.13538,-1.75339 -2.57268,-1.75339 -0.72487,0 -0.75084,0.10621 -0.5175,2.11666 0.23851,2.055 0.22153,2.11681 -0.58272,2.12149 -0.45562,0.003 -1.16981,0.0964 -1.58709,0.20837 -0.62122,0.16666 -0.79336,0.022 -0.95001,-0.79857 z m 5.54342,-7.50226 c 0.59502,-0.59502 0.63967,-0.83845 0.29324,-1.59879 -0.33419,-0.73345 -0.65491,-0.8969 -1.75991,-0.8969 -0.74318,0 -1.64075,0.21169 -1.99458,0.47042 -0.57256,0.41866 -0.59494,0.61709 -0.20339,1.80349 0.42133,1.27664 0.49334,1.3244 1.70135,1.12836 0.69377,-0.11258 1.57725,-0.52054 1.96329,-0.90658 z m -58.28793,5.25993 c -0.27208,-0.78051 -0.80579,-1.25026 -2.00403,-1.76389 -2.31007,-0.99021 -3.62192,-0.92862 -4.04723,0.19002 -0.28565,0.75131 -0.49053,0.8537 -1.31418,0.65675 -1.41764,-0.33898 -2.21163,-0.8057 -2.20251,-1.29466 0.0158,-0.84811 7.73402,-10.83567 8.36741,-10.82766 1.23982,0.0157 2.10404,1.19067 2.71868,3.69632 0.82249,3.35296 1.60485,7.86574 1.60543,9.26041 4.6e-4,1.09773 -0.0581,1.14653 -1.37612,1.14653 -1.21396,0 -1.42041,-0.12568 -1.74745,-1.06382 z m -0.79166,-5.55076 c -0.0193,-0.53358 -0.13841,-1.31627 -0.26459,-1.73932 -0.2211,-0.74129 -0.28698,-0.71978 -1.81692,0.59315 -1.5875,1.36232 -1.5875,1.36232 -0.70555,1.71695 0.48507,0.19505 1.31851,0.3647 1.85208,0.377 0.83671,0.0193 0.9653,-0.11107 0.93498,-0.94778 z m 71.60349,4.30251 c -4.46663,-1.38572 -6.33156,-7.26521 -3.37321,-10.63458 1.99743,-2.27495 5.47332,-3.2504 7.22082,-2.0264 1.64047,1.14903 0.62164,2.62583 -1.81152,2.62583 -1.43906,0 -3.21177,1.31213 -3.54011,2.62031 -0.26124,1.04087 0.27637,2.5682 1.28179,3.6415 1.34635,1.43724 4.76979,0.80708 4.4388,-0.81707 -0.1113,-0.54619 -0.39205,-0.66264 -1.40786,-0.58397 -1.37517,0.10651 -2.05131,-0.66682 -1.33628,-1.52838 0.49668,-0.59846 3.36207,-1.5685 4.63319,-1.5685 0.78906,0 0.99549,0.16019 0.99549,0.77251 0,0.42489 0.18918,1.68845 0.4204,2.80792 0.49245,2.38419 0.17181,2.95611 -2.30645,4.11398 -2.15501,1.00684 -3.38909,1.14334 -5.21506,0.57685 z m -86.385,-2.24385 c -0.29104,-0.16563 -2.19604,-0.89206 -4.23333,-1.61428 -2.03729,-0.72223 -3.82663,-1.42667 -3.97632,-1.56543 -0.41709,-0.38665 4.06377,-12.37087 4.6266,-12.37398 0.90285,-0.005 9.2275,3.36069 9.2275,3.73071 0,0.25189 -0.14953,0.85125 -0.33228,1.33192 -0.33227,0.87396 -0.33227,0.87396 -3.01205,0.023 -3.24862,-1.03163 -3.92772,-1.05747 -4.16283,-0.1584 -0.22444,0.85825 0.14038,1.14814 2.48008,1.97068 1.96029,0.68916 2.35866,1.46065 1.41111,2.73281 -0.40339,0.54157 -0.60636,0.54767 -2.38125,0.0716 -2.58745,-0.69401 -3.175,-0.66929 -3.175,0.13356 0,0.86945 0.44777,1.18067 3.0868,2.14542 1.21268,0.44331 2.20486,0.92603 2.20486,1.07271 0,0.3138 -1.02919,2.82725 -1.15126,2.81156 -0.0459,-0.006 -0.32158,-0.14624 -0.61263,-0.31186 z m 99.54584,-3.55324 c -2.82624,-2.04732 -3.68495,-5.67668 -2.09098,-8.83761 0.63478,-1.25882 1.19875,-1.77656 2.81601,-2.58519 1.70053,-0.85026 2.27598,-0.97307 3.61711,-0.77196 3.42388,0.51344 6.49338,4.27569 6.02681,7.38698 -0.72503,4.83486 -6.58239,7.55075 -10.36895,4.80778 z m 5.89817,-3.36839 c 1.23604,-1.40778 1.31737,-1.88556 0.56772,-3.33522 -1.21801,-2.35537 -3.73484,-2.85046 -5.26232,-1.03516 -1.23561,1.46845 -1.17945,2.82026 0.18158,4.37038 0.83704,0.95334 1.36843,1.247 2.25651,1.247 0.88807,0 1.41946,-0.29366 2.25651,-1.247 z m -123.70025,-0.51302 c -0.63059,-0.38448 -1.14653,-0.8206 -1.14653,-0.96916 0,-0.14856 0.87312,-1.98047 1.94028,-4.07091 1.06715,-2.09044 1.94027,-4.00838 1.94027,-4.26209 0,-0.2537 -0.59531,-0.85138 -1.32291,-1.32816 -1.40505,-0.92071 -1.53082,-1.56402 -0.59192,-3.02757 0.49887,-0.77763 0.49887,-0.77763 5.1756,1.49902 2.5722,1.25216 4.82716,2.32693 5.01102,2.38837 0.40392,0.13498 -0.38402,2.16679 -1.05682,2.72516 -0.35147,0.2917 -0.89026,0.20447 -2.13323,-0.34536 -0.91465,-0.40459 -1.68132,-0.694 -1.70371,-0.64314 -1.07608,2.44404 -4.64129,8.74895 -4.9389,8.73421 -0.0147,-7.3e-4 -0.54256,-0.3159 -1.17315,-0.70037 z m 133.98101,-1.40131 c -0.92754,-0.92754 -0.48569,-2.19728 0.90687,-2.60609 1.95277,-0.57326 2.78383,-1.1368 2.90307,-1.96852 0.11364,-0.79274 0.0537,-0.81898 -1.23473,-0.54054 -4.24789,0.91799 -6.91475,-0.0319 -7.10334,-2.53 -0.13759,-1.82276 0.97285,-3.46801 3.23791,-4.79732 2.00828,-1.1786 2.52719,-1.15172 3.52239,0.18248 0.96224,1.29002 0.50883,2.02104 -1.56338,2.52058 -1.2121,0.2922 -1.58979,0.55588 -1.67714,1.17088 -0.13188,0.92861 0.23286,0.97584 3.24135,0.41969 2.3164,-0.42821 4.23317,0.004 4.81159,1.08467 0.19254,0.35976 0.35007,1.45066 0.35007,2.42421 0,1.56978 -0.14418,1.91013 -1.27402,3.00742 -0.70072,0.68052 -1.77228,1.38828 -2.38125,1.5728 -2.54916,0.77237 -3.01925,0.77988 -3.73939,0.0597 z m -74.12639,-5.43809 c -0.0808,-0.073 -1.89324,-0.22874 -4.02754,-0.34604 -5.17047,-0.28419 -5.91251,-0.39103 -14.11111,-2.03185 -10.77673,-2.15679 -14.67205,-3.3573 -26.81111,-8.26303 -16.65796,-6.73192 -26.84941,-12.84713 -40.592,-24.35655 -8.20355,-6.87049 -18.08967,-18.59617 -24.73606,-29.33884 -3.91881,-6.33404 -4.34454,-7.12447 -6.88837,-12.78926 -4.71783,-10.50607 -7.38222,-19.32798 -9.48257,-31.39722 -1.31537,-7.55848 -1.73839,-17.80887 -1.04845,-25.40537 0.98632,-10.85976 4.30458,-24.68155 8.0284,-33.44122 1.24613,-2.93131 1.24613,-2.93131 0.67634,-4.96203 -0.75389,-2.68686 -0.76998,-11.65522 -0.0292,-16.27193 1.27853,-7.96794 3.49038,-13.99799 7.76739,-21.17582 3.76741,-6.32261 5.19291,-8.14232 10.07981,-12.86723 2.20748,-2.1343 5.40923,-5.56839 7.11501,-7.63131 3.95788,-4.78651 9.79042,-10.45717 13.75504,-13.37326 3.87865,-2.85285 10.12779,-6.09595 12.76804,-6.62619 1.74138,-0.34972 2.34139,-0.7122 4.52429,-2.73324 3.01691,-2.7932 8.73814,-6.6805 12.93258,-8.78708 5.59093,-2.80793 13.85948,-5.24071 19.41723,-5.71296 1.7382,-0.14769 3.01865,-0.5579 5.29167,-1.69524 3.47097,-1.73675 7.25515,-3.00854 11.99444,-4.03111 5.0859,-1.09735 5.55332,-1.12704 19.93195,-1.26635 14.19605,-0.13754 17.06835,0.0613 22.84015,1.58081 3.40919,0.89754 5.69932,1.79416 9.1035,3.56414 2.03695,1.0591 3.19819,1.42555 4.93889,1.55854 11.47021,0.87635 23.40915,6.0059 32.35397,13.90085 2.39137,2.11069 3.386,2.73089 5.68137,3.54259 8.33608,2.94785 14.18533,7.06609 23.21458,16.34451 2.32378,2.3879 4.915318,5.36634 5.758978,6.61875 0.84366,1.25241 2.74669,3.54711 4.22895,5.09933 9.35065,9.79199 14.37412,18.75211 17.30611,30.86805 1.07448,4.44009 1.21189,14.65282 0.24811,18.43919 -0.6078,2.38781 -0.6078,2.38781 0.62252,4.80195 2.67696,5.25279 6.4068,18.33992 7.75375,27.20608 0.62573,4.11881 1.21802,15.21994 1.04462,19.57917 -0.53879,13.54583 -4.15478,29.83037 -9.32179,41.98055 -5.92386,13.92991 -16.1414,28.65206 -27.930438,40.24413 -5.22237,5.13512 -12.84307,11.33112 -18.46829,15.01561 -9.37477,6.14044 -16.23217,9.57098 -31.02897,15.52282 -3.62458,1.45794 -13.19213,4.45232 -17.16331,5.37163 -3.44276,0.79699 -16.19749,2.64609 -20.95215,3.03751 -4.06056,0.33428 -16.48155,0.50219 -16.78634,0.22692 z m 17.31551,-4.44785 c 2.8134,-0.183 6.86153,-0.57807 8.99583,-0.87792 2.13431,-0.29985 5.15056,-0.72329 6.70278,-0.94098 2.82222,-0.39579 2.82222,-0.39579 5.76929,-3.43634 4.01117,-4.1384 9.22581,-10.29458 11.63842,-13.7398 1.09729,-1.56693 2.98725,-4.22623 4.19993,-5.90957 1.21267,-1.68333 2.20486,-3.25916 2.20486,-3.50184 0,-0.24268 -0.51594,-0.65086 -1.14653,-0.90707 -1.91239,-0.777 -5.3695,-4.35707 -6.37726,-6.60409 -1.08355,-2.416 -1.74157,-6.19439 -1.43942,-8.26518 1.0031,-6.87475 3.7324,-9.10179 8.24684,-6.72921 4.04079,2.12366 6.17136,6.1752 6.1792,11.7505 0.004,3.00096 0.004,3.00096 1.89654,0 1.04078,-1.65052 2.311,-3.85322 2.82272,-4.89488 0.93041,-1.89394 0.93041,-1.89394 0.0511,-2.46945 -1.80344,-1.18033 -6.42048,-5.45566 -7.25726,-6.72012 -2.40331,-3.63164 -3.04043,-9.47279 -1.4142,-12.96552 0.94275,-2.02481 1.69492,-2.58569 3.46752,-2.58569 3.28989,0 6.85366,2.65893 8.74734,6.52639 0.76362,1.55953 0.88412,2.36997 1.04007,6.99533 0.17639,5.23145 0.17639,5.23145 1.19383,2.82222 0.5596,-1.32507 1.41003,-3.02681 1.88986,-3.78165 0.47982,-0.75483 1.63032,-2.68955 2.55665,-4.29937 1.91844,-3.33395 1.99362,-3.0564 -1.457,-5.37844 -2.17061,-1.46068 -4.30542,-3.93184 -5.50255,-6.36952 -1.75909,-3.58201 -1.51087,-9.89884 0.51153,-13.01787 1.06411,-1.64109 2.05943,-2.19755 3.91109,-2.18656 2.97714,0.0177 5.7676,2.32105 7.84279,6.47387 0.9911,1.98337 1.04935,2.33989 1.06857,6.53931 0.0203,4.44157 0.0203,4.44157 0.83035,2.67768 0.44552,-0.97014 2.262,-4.44366 4.03662,-7.71894 1.77463,-3.27528 3.22558,-5.97403 3.22433,-5.99722 -10e-4,-0.0232 -1.21691,-1.31217 -2.70149,-2.8644 -1.58783,-1.66019 -3.05053,-3.58577 -3.55245,-4.67666 -2.21533,-4.81487 -1.67755,-11.39964 1.17052,-14.33221 2.00182,-2.0612 3.46754,-2.11579 6.07594,-0.22627 1.84898,1.33939 3.47857,3.56098 3.99257,5.44299 0.24399,0.89337 0.32118,2.97656 0.2022,5.45738 -0.10583,2.20685 -0.0701,3.87372 0.0795,3.70417 0.14954,-0.16956 0.80502,-1.65452 1.45665,-3.29991 0.65162,-1.64539 2.36271,-5.28623 3.80243,-8.09076 2.11832,-4.12642 2.54444,-5.21639 2.2338,-5.71381 -0.21113,-0.33808 -0.55444,-1.98726 -0.7629,-3.66485 -0.63094,-5.07739 0.3037,-8.04659 3.48636,-11.07553 1.597558,-1.52041 3.117368,-2.1537 5.168538,-2.1537 2.11424,0 2.81658,0.4126 3.7733,2.21666 0.64608,1.2183 0.78994,2.0621 0.7949,4.66251 0.005,2.68554 -0.13448,3.47456 -0.90556,5.11826 -1.26538,2.69738 -5.28065,6.3012 -7.0594,6.336 -0.83762,0.0164 -1.41593,0.82495 -3.918868,5.47907 -1.25215,2.32833 -2.63815,4.83053 -3.08,5.56043 -0.80336,1.3271 -0.80336,1.3271 0.99764,0.42251 3.17568,-1.59505 7.550818,-1.88088 9.974108,-0.6516 2.75566,1.39788 1.92722,6.63592 -1.60879,10.17193 -3.75808,3.75808 -11.560218,5.52375 -15.471298,3.50124 -0.56978,-0.29464 -1.08225,-0.48431 -1.13882,-0.4215 -0.0566,0.0628 -0.8529,1.61396 -1.7696,3.44699 -0.9167,1.83303 -2.68128,4.89621 -3.92129,6.80706 -2.24146,3.45408 -2.82566,4.77377 -1.6372,3.69838 1.82396,-1.65043 7.14239,-2.84096 10.64178,-2.38215 2.22944,0.2923 3.37837,1.34136 3.77302,3.44502 0.30683,1.63552 -0.34704,5.65184 -1.46704,9.01118 -0.84885,2.54606 -0.84885,2.54606 -0.0632,1.53583 0.43209,-0.55563 2.92874,-3.21497 5.54811,-5.90966 4.762498,-4.89942 4.762498,-4.89942 5.025188,-7.44538 0.14447,-1.40027 0.44144,-3.08761 0.65993,-3.74964 0.51439,-1.55862 2.64616,-3.91103 4.09314,-4.5168 1.69315,-0.70881 4.64841,-0.60285 5.98933,0.21477 2.59015,1.57931 2.21354,6.04188 -0.76092,9.01634 -1.54821,1.54821 -2.75286,2.05864 -6.16793,2.61343 -1.35658,0.22039 -1.95339,0.61366 -3.8325,2.52549 -2.2257,2.26446 -2.2257,2.26446 0.31578,2.46713 2.36326,0.18846 2.62448,0.29324 3.72501,1.49413 1.33373,1.45535 1.57554,3.19779 0.6416,4.62316 -0.7229,1.1033 -4.32618,2.68314 -6.67182,2.92523 -2.634578,0.27191 -4.244538,-0.10991 -5.643798,-1.33848 -1.2008,-1.05431 -1.2008,-1.05431 -2.47049,0.60854 -0.69832,0.91457 -1.13897,1.79357 -0.9792,1.95334 0.15976,0.15976 1.54017,0.44892 3.06758,0.64258 3.85597,0.48889 5.623458,1.85584 5.554098,4.29544 -0.0571,2.00859 -1.841978,3.32771 -5.896378,4.35773 -3.22509,0.81933 -5.89455,0.52064 -8.00312,-0.8955 -1.37013,-0.92018 -1.54546,-0.95997 -1.84158,-0.41793 -0.18,0.32949 -1.41202,1.7661 -2.73782,3.19245 -1.32579,1.42636 -2.41054,2.78694 -2.41054,3.02351 0,0.30932 0.9232,0.42314 3.28711,0.40523 3.07498,-0.0233 3.37093,0.0389 4.58611,0.9632 1.03649,0.78841 1.299,1.22423 1.299,2.15659 0,0.94803 -0.33497,1.48182 -1.77545,2.82922 -2.81861,2.63648 -4.33727,3.15333 -9.33705,3.17769 -2.32833,0.0113 -4.78895,-0.0976 -5.46805,-0.24211 -1.23472,-0.26274 -1.23472,-0.26274 -5.29167,4.91764 -2.23132,2.84921 -5.83191,6.97588 -8.00133,9.17038 -2.16942,2.1945 -3.7492,3.99 -3.51061,3.99 0.75304,0 11.26494,-5.39602 13.82391,-7.09615 1.34779,-0.89546 3.64116,-2.32234 5.09636,-3.17086 3.50123,-2.04154 10.55821,-6.8897 11.28889,-7.75549 0.097,-0.11495 1.84327,-1.67447 3.88056,-3.46558 8.18661,-7.19739 17.229588,-18.09405 23.886388,-28.78274 5.38331,-8.6439 10.31738,-20.58516 12.79932,-30.97648 3.78833,-15.86088 4.38009,-26.15596 2.42707,-42.22491 -0.99239,-8.1652 -6.61707,-26.93086 -8.40285,-28.03454 -0.18953,-0.11713 -1.15817,0.1993 -2.15254,0.70319 -0.99437,0.50389 -4.85001,2.08031 -8.56809,3.50317 -3.71807,1.42285 -9.14139,3.68324 -12.051798,5.02308 -2.91042,1.33984 -7.35542,3.38067 -9.87778,4.53517 -4.98596,2.28211 -24.34168,11.7843 -27.60828,13.55358 -1.7943,0.97183 -6.17029,3.05864 -12.60837,6.01264 -5.87952,2.69771 -11.11154,4.89091 -12.6209,5.29054 -0.92663,0.24534 -1.74315,0.54335 -1.8145,0.66226 -0.15305,0.25506 1.0733,21.91553 1.5302,27.0273 0.79455,8.88935 1.78807,21.55869 2.31088,29.46836 0.31462,4.75995 0.72042,9.6812 0.90178,10.93611 0.18136,1.2549 0.33293,3.92241 0.33683,5.9278 0.007,3.40752 -0.0679,3.7987 -1.13943,5.97692 -0.68349,1.38947 -2.16949,3.42928 -3.6795,5.0508 -1.39314,1.49601 -2.84528,3.33076 -3.227,4.07723 -3.63954,7.11741 -16.53204,12.65706 -29.78569,12.79832 -8.67655,0.0925 -15.88901,-1.37745 -22.30989,-4.54684 -4.44706,-2.19511 -7.32298,-4.53492 -10.11014,-8.22549 -1.20545,-1.59616 -2.9163,-3.70536 -3.8019,-4.68712 -0.8856,-0.98175 -2.24518,-2.70746 -3.02129,-3.83491 -1.36313,-1.98021 -1.41105,-2.14744 -1.4092,-4.91777 0.001,-1.57732 0.20095,-6.75723 0.44422,-11.51091 0.24327,-4.75368 0.52842,-10.46868 0.63366,-12.7 0.10523,-2.23132 0.34605,-5.72382 0.53515,-7.76111 1.03424,-11.14277 1.34448,-15.13961 1.54714,-19.93195 0.12308,-2.91041 0.45985,-9.22667 0.74837,-14.03611 0.28853,-4.80945 0.44361,-8.87549 0.34463,-9.03564 -0.099,-0.16015 -0.93811,-0.49392 -1.86474,-0.74172 -3.38495,-0.90519 -5.98441,-2.13344 -36.67086,-17.32711 -8.18276,-4.05149 -14.96627,-7.36636 -15.07447,-7.36636 -0.24806,0 -5.4924,-2.4508 -9.20612,-4.30223 -2.79101,-1.39142 -9.36954,-4.0551 -15.52221,-6.28501 -1.74625,-0.6329 -4.2426,-1.68468 -5.54744,-2.33729 -1.30485,-0.65262 -2.49631,-1.18658 -2.64771,-1.18658 -0.15139,0 -0.45344,0.51594 -0.67121,1.14653 -0.21778,0.63059 -1.05717,3.05153 -1.86533,5.37986 -2.27797,6.56302 -3.78606,12.23042 -4.74061,17.81528 -0.83516,4.88631 -0.97853,5.91256 -1.50323,10.75972 -0.32834,3.03321 -0.17458,15.30736 0.23864,19.05 0.30236,2.73857 0.92686,6.28441 2.11246,11.99444 2.27007,10.93296 7.33846,23.78108 13.22009,33.51234 6.72759,11.13094 9.91201,15.20005 19.56015,24.99433 5.78629,5.87394 8.11398,7.96833 11.56619,10.40694 9.41166,6.64834 15.33201,10.43569 20.80116,13.30688 3.14622,1.6517 5.81465,3.1556 5.92985,3.34199 0.1152,0.18639 0.43773,0.3389 0.71674,0.3389 0.27902,0 -2.07206,-2.89719 -5.22462,-6.4382 -3.15255,-3.54101 -6.89061,-7.82726 -8.30678,-9.525 -1.41618,-1.69774 -2.70633,-3.0868 -2.86701,-3.0868 -0.16067,0 -0.86205,0.23812 -1.55861,0.52916 -1.97325,0.82448 -7.13787,0.70681 -9.61233,-0.219 -4.25675,-1.59266 -7.18142,-6.00958 -5.17055,-7.80873 0.83145,-0.74391 4.6517,-1.45495 6.62317,-1.23273 1.59622,0.17991 1.59622,0.17991 0.0883,-1.49222 -0.82938,-0.91968 -2.28394,-2.58108 -3.23236,-3.69202 -0.96814,-1.13404 -1.82449,-1.85792 -1.95264,-1.65058 -0.40721,0.65888 -2.61863,1.3792 -5.01382,1.63315 -3.06673,0.32514 -5.81359,-0.44411 -7.71283,-2.15996 -1.75818,-1.5884 -1.98723,-2.34768 -1.2209,-4.04711 0.86467,-1.91749 2.77128,-2.79051 6.09431,-2.79051 1.39394,0 2.53445,-0.12477 2.53445,-0.27728 0,-0.15251 -0.65286,-0.77905 -1.4508,-1.39233 -1.4508,-1.11504 -1.4508,-1.11504 -2.43846,-0.38484 -0.8755,0.64728 -1.36176,0.71279 -4.28184,0.57683 -3.59881,-0.16757 -4.96231,-0.66316 -6.91014,-2.51163 -1.50412,-1.4274 -1.61747,-3.55749 -0.26145,-4.9135 0.98327,-0.98327 3.64652,-1.86938 4.75067,-1.58063 1.0947,0.28627 0.87959,-0.14978 -1.21664,-2.4662 -1.89409,-2.09304 -1.97134,-2.13663 -4.0529,-2.28719 -2.68688,-0.19436 -4.71678,-1.55111 -6.10021,-4.0773 -2.46979,-4.50993 -1.19296,-8.01988 2.89499,-7.95821 4.69054,0.0708 7.7779,3.51644 7.7779,8.68059 0,2.13349 0,2.13349 4.3601,6.5741 2.55381,2.60097 4.73922,5.16975 5.27524,6.20063 1.1133,2.14114 1.20052,1.60547 0.21496,-1.32014 -0.90424,-2.68418 -1.28757,-7.77309 -0.71599,-9.505 1.17734,-3.56738 5.4362,-4.05752 12.01017,-1.38222 2.41989,0.98478 2.41989,0.98478 1.17391,-1.34337 -3.92435,-7.33272 -6.19554,-11.32465 -6.66459,-11.71393 -0.40615,-0.33708 -0.79463,-0.34802 -1.65412,-0.0466 -2.0646,0.72405 -3.5737,0.83586 -6.06219,0.44918 -3.31552,-0.51519 -6.36505,-2.06416 -8.93127,-4.53654 -1.72322,-1.66019 -2.23126,-2.41877 -2.70016,-4.03176 -0.99323,-3.41657 0.056,-5.52571 3.025,-6.08094 1.27939,-0.23926 6.05718,0.6149 8.01625,1.43313 1.29651,0.54149 1.29605,0.55325 0.0554,-1.41837 -0.48199,-0.76598 -1.75095,-3.05148 -2.81991,-5.0789 -1.98935,-3.77305 -2.10569,-3.9019 -4.23004,-4.68503 -1.9622,-0.72335 -4.72061,-3.57161 -5.86016,-6.05104 -1.90142,-4.13713 -1.19189,-10.44492 1.32107,-11.74443 2.20065,-1.13799 4.7219,-0.27515 7.66706,2.62387 3.06593,3.0179 3.82852,5.34028 3.23012,9.83694 -0.2189,1.64495 -0.63063,3.34586 -0.91496,3.77979 -0.4828,0.73685 -0.33517,1.14789 2.23431,6.22107 1.51319,2.98765 3.31045,6.6882 3.99391,8.22345 1.24265,2.79136 1.24265,2.79136 1.09359,-0.61669 -0.18112,-4.14123 0.27032,-6.16762 1.91103,-8.57803 2.63691,-3.87397 6.10115,-4.94449 8.83919,-2.73149 1.98255,1.60238 2.66723,3.69076 2.70571,8.25291 0.0263,3.11555 -0.1017,4.0403 -0.80542,5.81945 -0.88123,2.22794 -3.73199,5.58002 -5.86841,6.90039 -1.13891,0.70389 -1.13891,0.70389 0.25654,3.24255 0.76749,1.39626 1.60866,2.78123 1.86925,3.07771 0.26059,0.29649 1.04894,1.65031 1.75188,3.00851 3.58654,6.92977 3.33097,6.71111 3.2671,2.79515 -0.0759,-4.65263 0.77537,-7.01246 3.55753,-9.86204 2.86804,-2.93756 5.88641,-3.89314 7.97483,-2.52476 1.31051,0.85868 2.63941,3.68935 3.03137,6.45705 0.86341,6.09679 -2.20807,12.15419 -7.83502,15.45181 -0.91879,0.53845 -1.67053,1.1116 -1.67053,1.27367 0,0.20857 6.40251,11.98357 6.83633,12.57285 0.0236,0.032 0.0428,-2.03175 0.0428,-4.58611 0,-5.49678 0.45422,-6.83964 3.34868,-9.9001 2.32787,-2.46137 4.67171,-3.5307 6.7268,-3.06896 3.0601,0.68756 4.06074,2.81143 3.75593,7.97199 -0.29671,5.02344 -1.088,6.67495 -4.78743,9.99188 -1.69132,1.51645 -3.58468,3.05818 -4.20747,3.42607 -0.62279,0.36789 -1.13234,0.83561 -1.13234,1.03939 0,0.20378 0.6545,1.47924 1.45444,2.83436 0.79994,1.35511 1.90261,3.39879 2.45037,4.5415 1.11172,2.31918 1.1435,2.28449 1.58041,-1.72488 0.32909,-3.01994 1.26868,-5.21528 3.19921,-7.47499 2.64653,-3.09779 6.78621,-4.55204 8.84767,-3.10814 1.44877,1.01476 2.84863,7.4661 2.3997,11.05919 -0.52327,4.18811 -2.27161,6.97488 -6.35029,10.12206 -1.24675,0.962 -2.27262,1.89762 -2.27972,2.07914 -0.007,0.18153 0.28541,0.65778 0.65001,1.05834 0.3646,0.40056 1.94264,2.63329 3.50674,4.96162 4.22736,6.29286 8.31893,11.67483 11.88173,15.629 3.175,3.52377 3.175,3.52377 5.64445,4.08416 2.1255,0.48234 14.09311,2.07894 18.34444,2.44734 3.13124,0.27134 15.83759,0.20584 20.6375,-0.10638 z m 29.8562,-5.94885 c 3.35261,-0.70616 6.61785,-2.1784 9.1745,-4.13664 3.19356,-2.44607 9.17996,-8.81681 14.43452,-15.36124 2.24069,-2.79073 4.46356,-5.36577 4.93973,-5.72231 0.86239,-0.64575 0.86316,-0.65189 0.19852,-1.5875 -1.2059,-1.69753 -1.80613,-3.63613 -2.02562,-6.54225 -0.25402,-3.36331 0.10018,-4.93804 1.70888,-7.5974 1.39844,-2.31179 2.52343,-3.19401 4.39263,-3.44472 1.9264,-0.25839 3.44436,0.58556 4.39111,2.44135 0.6644,1.30232 0.72774,1.83733 0.52688,4.45041 -0.20669,2.68901 -0.17523,2.92608 0.33239,2.50479 0.30839,-0.25593 0.85377,-1.03158 1.21198,-1.72366 0.3582,-0.69207 1.46559,-2.05207 2.46087,-3.02221 0.99528,-0.97014 2.30299,-2.53094 2.90603,-3.46847 1.09644,-1.70458 1.09644,-1.70458 0.4598,-3.70416 -0.35015,-1.09977 -0.71377,-3.54739 -0.80804,-5.43916 -0.0943,-1.89177 -0.2262,-3.43959 -0.29319,-3.43959 -0.067,0 -1.30407,0.39688 -2.74906,0.88195 -3.06598,1.02921 -5.00613,1.11894 -6.19463,0.28648 -0.57167,-0.40041 -0.89383,-0.46442 -0.9835,-0.19541 -0.0734,0.22004 -0.72616,1.32143 -1.45069,2.44755 -0.72454,1.12612 -1.85443,2.99999 -2.51088,4.16416 -0.65645,1.16416 -2.60627,4.24332 -4.33293,6.84257 -1.72667,2.59924 -4.575,7.12362 -6.32964,10.05416 -1.75463,2.93054 -3.92254,6.36013 -4.81757,7.62131 -0.89503,1.26118 -2.34439,3.48368 -3.22081,4.93889 -1.78286,2.96029 -5.29013,7.71267 -12.4379,16.85347 -1.58536,2.02742 -2.25407,3.45378 -1.23472,2.63371 0.24253,-0.19513 1.25564,-0.52636 2.25134,-0.73608 z m -79.24509,0.32632 c 0,-0.17894 -0.55002,-1.01238 -1.22226,-1.85208 -0.67225,-0.8397 -3.06085,-4.22548 -5.30801,-7.52395 -2.24716,-3.29848 -5.11766,-7.42598 -6.37889,-9.17222 -3.86388,-5.34977 -4.42579,-6.25479 -11.17062,-17.99167 -1.33802,-2.32833 -2.71361,-4.55083 -3.05686,-4.93888 -0.79398,-0.89762 -5.21168,-8.13338 -6.71872,-11.00461 -1.46946,-2.79963 -2.17885,-3.46928 -3.13376,-2.95823 -0.83786,0.44841 -7.51911,0.51882 -6.81393,0.0718 0.63741,-0.40405 -0.48249,-0.84899 -1.4022,-0.55708 -0.57433,0.18228 -0.65585,0.597 -0.65585,3.33642 0,3.33212 -0.32961,4.66289 -1.45165,5.8609 -0.69804,0.74529 -0.69784,0.74798 0.12993,1.76389 0.45597,0.5596 1.55606,2.04933 2.44464,3.31051 0.88859,1.26117 1.97311,2.61055 2.41006,2.9986 0.43695,0.38806 1.4224,1.55133 2.1899,2.58506 0.76749,1.03372 1.45353,1.82139 1.52455,1.75038 0.071,-0.071 -0.0949,-0.75804 -0.36868,-1.52672 -0.71358,-2.00349 -0.66767,-5.7088 0.0892,-7.19478 0.88068,-1.72916 2.97651,-2.45741 5.29153,-1.83868 2.27495,0.60803 3.14708,1.53767 4.00033,4.26414 1.41943,4.53567 1.2028,9.12961 -0.61074,12.95137 -0.57164,1.20462 -0.57164,1.20462 1.67925,3.6014 1.23798,1.31823 4.23263,4.56707 6.65476,7.21966 2.42213,2.65259 4.51978,4.82289 4.66144,4.82289 0.14166,0 1.07717,0.99219 2.0789,2.20486 4.05216,4.90546 7.77935,7.65115 12.84467,9.46222 2.09566,0.74929 2.29305,0.77983 2.29305,0.35479 z m 45.68472,-21.03449 c 1.16417,-0.12006 3.22792,-0.51505 4.58611,-0.87777 8.35184,-2.2304 13.86473,-5.48692 16.37593,-9.67343 1.03273,-1.72171 1.22971,-2.41275 1.36783,-4.79853 0.14433,-2.49323 0.0614,-2.9914 -0.78609,-4.72365 -2.11223,-4.31724 -8.66048,-8.6731 -16.25316,-10.81151 -3.91351,-1.1022 -17.3014,-1.40689 -21.79735,-0.49608 -7.36087,1.49121 -12.43327,3.84557 -16.04668,7.44809 -3.50288,3.49232 -4.68945,7.28119 -3.44943,11.01454 1.08435,3.26468 5.25132,7.1096 10.16474,9.37915 5.16977,2.38796 9.41152,3.35784 16.3131,3.72998 4.55737,0.24574 5.46917,0.22747 9.525,-0.19079 z m -14.11111,-2.65782 c -8.28464,-1.13306 -17.48593,-6.24536 -18.92963,-10.51744 -0.7485,-2.21488 -0.56027,-4.64075 0.50053,-6.45087 2.0984,-3.58064 6.17217,-6.24569 12.25549,-8.0175 4.78266,-1.39298 6.5337,-1.6379 12.52361,-1.75166 6.11756,-0.1162 10.16477,0.37179 14.30524,1.72483 9.80259,3.20334 14.9816,9.50871 12.32226,15.00217 -1.94689,4.02173 -8.2404,7.81075 -15.86567,9.55195 -2.8142,0.6426 -13.64401,0.9328 -17.11183,0.45852 z m 16.58056,-3.8327 c 6.29842,-1.48917 12.9733,-5.70925 12.84853,-8.12327 -0.0187,-0.36267 -0.086,-0.39468 -0.20578,-0.0979 -0.24389,0.60443 -0.8247,0.55698 -0.8247,-0.0674 0,-0.2796 -0.13582,-0.59229 -0.30182,-0.69488 -0.16599,-0.1026 -0.22686,0.20553 -0.13526,0.68473 0.0916,0.4792 0.31617,0.87127 0.49903,0.87127 0.18286,0 0.22388,0.1757 0.0912,0.39044 -0.16877,0.27308 -0.32864,0.24913 -0.53187,-0.0797 -0.21686,-0.35089 -0.37897,-0.24859 -0.63909,0.40331 -0.1917,0.4804 -0.3586,0.67501 -0.3709,0.43248 -0.0123,-0.24254 -0.19048,-0.44097 -0.39596,-0.44097 -0.20548,0 -0.27548,0.15875 -0.15557,0.35277 0.11992,0.19403 0.0499,0.35278 -0.15557,0.35278 -0.20547,0 -0.37359,-0.17819 -0.37359,-0.39597 0,-0.25803 -0.20794,-0.22731 -0.59689,0.0882 -0.40557,0.32899 -0.51197,0.34283 -0.33196,0.0432 0.14571,-0.24254 0.12856,-0.44097 -0.0381,-0.44097 -0.16667,0 -0.51683,0.19843 -0.77813,0.44097 -0.32037,0.29736 -0.39892,0.3053 -0.24119,0.0244 0.12864,-0.22912 0.0864,-0.50772 -0.0938,-0.6191 -0.18021,-0.11137 -0.28279,0.2063 -0.22794,0.70594 0.0708,0.64536 -0.01,0.79911 -0.27782,0.53091 -0.58713,-0.58713 -0.9148,-0.44674 -0.76559,0.32802 0.0747,0.38805 0.006,0.70555 -0.15255,0.70555 -0.15863,0 -0.38623,-0.48901 -0.50576,-1.08668 -0.20078,-1.00391 -0.26108,-1.04293 -0.79165,-0.51237 -0.31587,0.31588 -0.46741,0.68122 -0.33675,0.81188 0.13067,0.13067 0.36326,0.0342 0.51688,-0.21436 0.17692,-0.28626 0.29063,-0.0539 0.31018,0.63393 0.0171,0.60274 -0.11822,0.99371 -0.30424,0.87874 -0.18432,-0.11391 -0.25407,-0.33826 -0.155,-0.49855 0.0991,-0.16029 -0.0422,-0.37674 -0.31388,-0.481 -0.58465,-0.22435 -1.73909,0.92373 -1.35481,1.34735 0.14595,0.16088 0.0643,0.17672 -0.18137,0.0352 -0.2457,-0.14153 -0.33429,-0.44479 -0.19686,-0.67392 0.14234,-0.23733 -0.007,-0.20825 -0.34703,0.0676 -0.32829,0.26629 -0.60193,0.34567 -0.6081,0.17639 -0.006,-0.16928 -0.2443,3.7e-4 -0.52917,0.37701 -0.31537,0.41695 -0.51795,0.50354 -0.51795,0.22139 0,-0.3745 -0.11451,-0.37052 -0.59688,0.0208 -0.50836,0.41236 -0.5526,0.41068 -0.29827,-0.0113 0.20878,-0.34643 0.16886,-0.41529 -0.13272,-0.2289 -0.23724,0.14662 -0.34075,0.52834 -0.23003,0.84826 0.16312,0.47136 0.10672,0.45992 -0.29743,-0.0603 -0.48226,-0.62078 -0.51105,-0.62078 -0.87208,0 -0.24424,0.41997 -0.37706,0.47454 -0.38408,0.15781 -0.009,-0.39355 -0.11129,-0.40071 -0.54797,-0.0383 -0.45416,0.37692 -0.49944,0.34737 -0.29283,-0.19106 0.18828,-0.49066 0.12937,-0.56516 -0.25651,-0.3244 -0.88919,0.55478 -1.45084,0.49292 -1.23291,-0.13581 0.16673,-0.48104 0.1109,-0.46947 -0.302,0.0625 -0.27861,0.35897 -0.6754,0.54834 -0.88175,0.42081 -0.25746,-0.15912 -0.27458,0.0327 -0.0546,0.61143 0.23746,0.62455 0.20015,0.84331 -0.14382,0.84331 -0.27381,0 -0.3813,-0.22926 -0.26187,-0.55857 0.15484,-0.42694 0.008,-0.3923 -0.62344,0.14699 -0.45431,0.38806 -0.71705,0.51855 -0.58386,0.28999 0.14155,-0.24294 -0.0456,-0.50691 -0.45053,-0.63542 -0.39196,-0.12441 -0.61347,-0.42625 -0.51024,-0.69527 0.23449,-0.61108 -0.44067,-1.04343 -0.77774,-0.49804 -0.15942,0.25796 -0.10235,0.31853 0.15202,0.16132 0.224,-0.13844 0.40728,-0.0836 0.40728,0.12188 0,0.52205 -0.95596,0.46847 -1.20207,-0.0674 -0.11139,-0.24254 -0.12824,-0.12347 -0.0374,0.26458 0.0908,0.38806 -4.4e-4,0.94368 -0.20275,1.23472 -0.27861,0.4008 -0.3071,0.3159 -0.11745,-0.35001 0.23426,-0.82257 0.20736,-0.84528 -0.41786,-0.35278 -0.61883,0.48747 -0.63192,0.48012 -0.17701,-0.0995 0.27019,-0.34424 0.38761,-0.72953 0.26094,-0.85619 -0.12667,-0.12667 -0.44256,0.06 -0.70198,0.41474 -0.3249,0.44434 -0.54928,0.51947 -0.7211,0.24147 -0.16621,-0.26894 -0.54725,-0.0808 -1.14213,0.56392 -0.81151,0.8795 -0.84185,0.88817 -0.33359,0.0953 0.72006,-1.12332 0.70497,-1.25968 -0.14644,-1.32382 -0.38805,-0.0292 -0.70555,0.10511 -0.70555,0.29853 0,0.19342 0.15875,0.25356 0.35278,0.13364 0.19402,-0.11991 0.35277,-0.0593 0.35277,0.13475 0,0.19403 -0.14732,0.44383 -0.32738,0.55511 -0.39791,0.24592 -0.86474,-1.06992 -0.55651,-1.56865 0.12099,-0.19576 0.13169,-0.35593 0.0238,-0.35593 -0.10791,0 -0.43562,0.51594 -0.72824,1.14653 -0.53204,1.14652 -0.53204,1.14652 -0.33964,0.0882 0.1924,-1.05833 0.1924,-1.05833 -0.52498,0 -0.39456,0.58208 -0.71842,0.86927 -0.7197,0.63818 -10e-4,-0.23108 0.15642,-0.51826 0.35045,-0.63818 0.19403,-0.11991 0.35278,-0.39201 0.35278,-0.60466 0,-0.22305 -0.26121,-0.15944 -0.61736,0.15035 -0.82604,0.71849 -1.85055,0.68894 -1.57601,-0.0455 0.18701,-0.50026 0.1396,-0.50333 -0.45413,-0.0294 -0.5317,0.42441 -0.60316,0.43 -0.36096,0.0282 0.22646,-0.37565 0.15517,-0.44459 -0.28506,-0.27566 -0.38965,0.14953 -0.58704,0.0441 -0.58704,-0.31364 0,-0.29641 0.15875,-0.44081 0.35278,-0.32089 0.19403,0.11992 0.35278,0.0594 0.35278,-0.13443 0,-0.5036 -1.85595,-0.29495 -2.03035,0.22825 -0.0948,0.28451 0.0793,0.36295 0.50157,0.22592 0.50348,-0.16339 0.53665,-0.13158 0.14966,0.14351 -0.27345,0.19438 -0.70404,0.27404 -0.95688,0.17701 -0.3633,-0.13941 -0.34062,-0.35813 0.10812,-1.04299 0.45306,-0.69147 0.46821,-0.84528 0.0749,-0.7611 -0.27109,0.058 -0.60952,0.26425 -0.75207,0.45828 -0.16178,0.2202 -0.26121,0.19122 -0.26458,-0.0771 -0.003,-0.23786 -0.24356,-0.33851 -0.53857,-0.2253 -0.39974,0.15339 -0.47396,0.0403 -0.29657,-0.45205 0.13013,-0.36115 0.10685,-0.53895 -0.0517,-0.39511 -0.15859,0.14383 -0.53185,0.0645 -0.82948,-0.17639 -0.4323,-0.34983 -0.48753,-0.34867 -0.27457,0.006 0.21248,0.35361 0.0777,0.3576 -0.66398,0.0196 -0.74075,-0.33751 -1.08712,-0.32786 -1.69817,0.0473 -0.7591,0.46606 -0.7603,0.46307 -0.10824,-0.27024 0.68383,-0.76904 1.24793,-0.84658 1.74874,-0.24036 0.17657,0.21373 0.23856,0.15636 0.15726,-0.14557 -0.18919,-0.70269 -1.36275,-0.79514 -2.30078,-0.18125 -0.88182,0.57711 -1.01652,0.29695 -0.30668,-0.63784 0.25555,-0.33653 0.60769,-0.49793 0.78253,-0.35866 0.17484,0.13927 0.11089,0.0177 -0.14212,-0.27006 -0.40061,-0.4557 -0.55265,-0.40938 -1.17714,0.35865 -0.39442,0.48507 -0.61373,0.68209 -0.48735,0.43782 0.12637,-0.24427 0.1268,-0.76857 9.4e-4,-1.1651 -0.1944,-0.61252 -0.31415,-0.65185 -0.79604,-0.26143 -0.47403,0.38404 -0.51805,0.37797 -0.26795,-0.037 0.30952,-0.51354 -0.18013,-0.46696 -1.72101,0.1637 -0.42527,0.17405 -0.59426,0.14534 -0.45649,-0.0776 0.12031,-0.19466 -0.005,-0.35393 -0.27939,-0.35393 -0.52497,0 -0.47703,0.12953 0.67457,1.82268 1.36398,2.00541 3.21009,3.76722 4.79349,4.57461 3.16903,1.61593 9.99242,3.49611 13.93472,3.8397 3.47913,0.30322 9.65707,-0.0911 12.7,-0.81051 z m -13.22917,-0.72463 c 0,-0.19403 0.16812,-0.35278 0.3736,-0.35278 0.20548,0 0.27548,0.15875 0.15557,0.35278 -0.11992,0.19402 -0.28804,0.35277 -0.3736,0.35277 -0.0856,0 -0.15557,-0.15875 -0.15557,-0.35277 z m 1.25567,-0.30876 c 0.1716,-0.62239 0.11654,-0.76718 -0.21405,-0.56286 -0.30039,0.18565 -0.35707,0.13268 -0.17436,-0.16295 0.17879,-0.28929 0.38939,-0.31934 0.62023,-0.0885 0.23083,0.23083 0.21159,0.57068 -0.0567,1.00087 -0.35958,0.57664 -0.37967,0.55523 -0.17515,-0.18656 z m 2.97766,0.17556 c 0,-0.0733 0.27782,-0.35106 0.61737,-0.61736 0.55952,-0.43881 0.572,-0.42633 0.13319,0.1332 -0.46086,0.58763 -0.75056,0.77451 -0.75056,0.48416 z m -0.48035,-1.10153 c 0.11169,-0.29104 0.33985,-0.52916 0.50703,-0.52916 0.16717,0 0.21258,0.23812 0.1009,0.52916 -0.11169,0.29105 -0.33985,0.52917 -0.50703,0.52917 -0.16717,0 -0.21258,-0.23812 -0.1009,-0.52917 z m 4.18452,-0.52916 c 0.11992,-0.19403 0.28804,-0.35278 0.3736,-0.35278 0.0856,0 0.15557,0.15875 0.15557,0.35278 0,0.19403 -0.16812,0.35278 -0.3736,0.35278 -0.20548,0 -0.27549,-0.15875 -0.15557,-0.35278 z m 13.46126,-1.92231 c -0.13085,-0.341 -0.0266,-0.44615 0.31301,-0.31582 0.28005,0.10747 0.42134,0.33751 0.31399,0.51121 -0.27037,0.43748 -0.39959,0.39721 -0.627,-0.19539 z m -15.16759,1.76871 c -0.10687,-0.2785 -0.005,-0.58347 0.22684,-0.6777 0.28558,-0.11618 0.2931,-0.1803 0.0234,-0.19918 -0.21878,-0.0153 -0.61565,0.24074 -0.88194,0.56903 -0.32899,0.40557 -0.34283,0.51197 -0.0432,0.33196 0.24254,-0.14571 0.44097,-0.0968 0.44097,0.10867 0,0.20548 0.0964,0.3736 0.21414,0.3736 0.11777,0 0.12669,-0.22787 0.0198,-0.50638 z m -9.93534,-0.90474 c 0.11992,-0.19402 0.0593,-0.35277 -0.13474,-0.35277 -0.19403,0 -0.45089,0.15875 -0.57081,0.35277 -0.11992,0.19403 -0.0593,0.35278 0.13475,0.35278 0.19403,0 0.45089,-0.15875 0.5708,-0.35278 z m 0.324,-1.01272 c 0.0751,-0.1221 -0.40359,-0.24093 -1.06383,-0.26408 -0.66024,-0.0231 -1.20044,0.10529 -1.20044,0.28541 0,0.18011 0.15875,0.22937 0.35277,0.10945 0.19403,-0.11992 0.35278,-0.0648 0.35278,0.12254 0,0.35282 1.31749,0.1387 1.55872,-0.25332 z m 19.60795,-0.53158 c 0,-0.0733 -0.27781,-0.35107 -0.61736,-0.61736 -0.55953,-0.43881 -0.57201,-0.42633 -0.1332,0.13319 0.46086,0.58764 0.75056,0.77452 0.75056,0.48417 z m 0.70555,-0.57236 c 0,-0.19403 -0.16812,-0.35278 -0.37359,-0.35278 -0.20548,0 -0.27549,0.15875 -0.15557,0.35278 0.11991,0.19403 0.28803,0.35278 0.37359,0.35278 0.0856,0 0.15557,-0.15875 0.15557,-0.35278 z m -25.27445,-0.78782 c -0.10791,-0.1746 -0.28476,-0.2289 -0.39299,-0.12066 -0.10824,0.10824 -0.44954,-2.6e-4 -0.75843,-0.24111 -0.48379,-0.37723 -0.50129,-0.36051 -0.12625,0.12065 0.45189,0.57976 1.62363,0.80088 1.27767,0.24112 z m 32.45325,-1.14116 c 0.1093,-0.28483 0.0224,-0.62686 -0.19316,-0.76006 -0.22839,-0.14116 -0.29315,-0.0825 -0.15522,0.14071 0.13015,0.2106 0.0753,0.48262 -0.12189,0.60449 -0.19719,0.12188 -0.35853,0.0535 -0.35853,-0.15201 0,-0.20548 -0.15377,-0.3736 -0.3417,-0.3736 -0.18794,0 -0.25033,0.23813 -0.13865,0.52917 0.25996,0.67743 1.05091,0.68426 1.30915,0.0113 z m -68.59127,6.24791 c 2.70629,-2.7063 3.72464,-5.26689 3.39699,-8.54154 -0.26719,-2.67029 -1.32013,-5.30238 -2.12117,-5.30238 -0.93572,0 -3.64927,2.79163 -4.59756,4.72987 -0.96324,1.9688 -1.24602,5.01969 -0.73223,7.89997 0.47537,2.66486 1.25155,1.44717 2.42883,-3.81041 0.51346,-2.29305 0.51346,-2.29305 0.55126,-0.17639 0.0387,2.16824 -1.15355,5.57349 -2.05686,5.8746 -0.564,0.18799 -0.0643,1.35735 0.58002,1.35735 0.2858,0 1.43363,-0.91398 2.55072,-2.03107 z m 131.84613,1.15264 c 1.99493,-0.59243 3.39532,-1.79967 2.63366,-2.27041 -0.56618,-0.34992 -4.89869,-0.77022 -5.86317,-0.56879 -0.38805,0.0811 -1.13157,0.23667 -1.65227,0.34583 -1.02309,0.21449 -2.58806,2.08411 -2.22977,2.66383 0.33309,0.53895 5.10814,0.42449 7.11155,-0.17046 z m -159.68643,-0.37613 c 0,-0.83239 -2.77695,-1.89033 -6.03377,-2.2987 -2.41864,-0.30327 -2.98592,-0.27824 -3.41482,0.15066 -1.22571,1.22572 2.28838,2.57972 6.89095,2.65513 2.0973,0.0344 2.55764,-0.0569 2.55764,-0.50709 z m 128.0017,-0.34954 c 0.91733,-2.01333 0.21006,-8.57303 -1.1809,-10.9525 -0.90561,-1.54919 -2.95615,-3.31839 -3.84608,-3.31839 -1.19097,0 -1.76905,1.70458 -1.78262,5.25639 -0.0114,2.97502 0.10237,3.62249 0.93575,5.32693 1.12508,2.30105 1.89573,3.2333 3.30202,3.99445 1.47484,0.79825 2.10242,0.72337 2.57183,-0.30688 z m -2.20815,-2.2579 c -0.70099,-3.08199 -0.71227,-3.51035 -0.0745,-2.82818 0.50409,0.53918 1.28093,3.30063 1.28093,4.55334 0,1.56865 -0.67769,0.59957 -1.20644,-1.72516 z m -121.07701,-0.10675 c 0.35176,-1.31259 0.24532,-6.3395 -0.16621,-7.84931 -0.72125,-2.6461 -2.74754,-3.89144 -3.53165,-2.17051 -0.30679,0.67333 -0.10031,1.71182 1.10471,5.55625 0.81511,2.60048 1.5533,4.84721 1.64041,4.99273 0.30203,0.50452 0.74108,0.26066 0.95274,-0.52916 z m 145.86642,-4.07179 c 1.53725,-4.69367 1.6198,-5.59385 0.63626,-6.93855 -0.43374,-0.59302 -0.635,-0.63274 -1.4121,-0.27867 -0.49844,0.2271 -1.34927,1.08355 -1.89072,1.90323 -0.91605,1.38675 -0.98373,1.73711 -0.97376,5.04118 0.0114,3.7629 0.46015,5.26718 1.51239,5.06928 0.42098,-0.0792 1.03969,-1.47378 2.12793,-4.79647 z m -106.13138,-7.6274 c 2.73304,-5.66787 10.81764,-10.51759 20.91271,-12.54496 3.16611,-0.63584 5.11977,-0.77058 11.64167,-0.80293 7.83709,-0.0389 7.83709,-0.0389 12.24681,1.26792 9.07434,2.68912 15.74171,6.81645 19.16406,11.86322 0.34922,0.51497 0.5915,1.56257 0.5915,2.55763 0,0.92697 0.14459,1.68539 0.3213,1.68539 0.17672,0 0.67292,-0.72631 1.10265,-1.61403 1.47811,-3.05336 0.11717,-6.79507 -3.7581,-10.33235 -2.70548,-2.46951 -5.18556,-3.97643 -9.39165,-5.70644 -6.53824,-2.68926 -16.22534,-4.46552 -22.31726,-4.09217 -9.71995,0.5957 -19.74222,3.12508 -25.02696,6.3162 -2.97302,1.79522 -6.62202,5.12838 -7.78269,7.10907 -1.58512,2.70499 -1.479,5.9545 0.2671,8.17897 0.79256,1.00968 0.79256,1.00968 0.99283,-0.57131 0.11015,-0.86955 0.57636,-2.36094 1.03603,-3.31421 z m 127.73782,0.49208 c 2.32399,-0.44073 3.13202,-1.09469 2.41705,-1.95618 -0.42151,-0.50788 -0.96361,-0.55407 -4.02664,-0.3431 -4.5061,0.31037 -6.50422,1.39114 -4.15691,2.24846 1.29043,0.4713 3.44899,0.49033 5.7665,0.0508 z m -187.75375,-0.54291 c 1.57306,-0.46715 1.83334,-0.66507 1.73972,-1.32292 -0.10597,-0.74465 -0.26069,-0.77358 -4.13763,-0.77358 -4.14951,0 -4.67192,0.18751 -3.80928,1.36723 0.88169,1.20579 3.54779,1.51903 6.20719,0.72927 z m 153.57837,-5.65468 c -0.0542,-1.5355 -0.18673,-3.53583 -0.29461,-4.44518 -0.28386,-2.39268 -2.05922,-5.14867 -4.1458,-6.43576 -1.71666,-1.05891 -1.71666,-1.05891 -2.38125,-0.23817 -0.94403,1.16583 -0.92704,5.95111 0.0286,8.05633 1.23543,2.72156 5.21566,6.34865 6.53874,5.9586 0.20774,-0.0612 0.3123,-1.25187 0.25431,-2.89582 z m -121.50877,1.49708 c 3.24741,-2.39587 4.76171,-5.25811 4.78873,-9.0514 0.0329,-4.61635 -1.23947,-5.41007 -4.03058,-2.51434 -2.42012,2.51083 -3.28503,5.01765 -3.03028,8.78281 0.27002,3.99087 0.40716,4.15885 2.27213,2.78293 z m 150.10113,-4.54393 c 1.18619,-3.38688 1.65518,-5.84818 1.7593,-9.23317 0.0941,-3.05771 -0.29125,-3.6663 -1.18797,-1.87634 -0.31245,0.62369 -1.15513,2.24524 -1.87262,3.60343 -1.26385,2.39243 -1.29995,2.56297 -1.15754,5.46806 0.14881,3.03573 0.69917,5.13705 1.25541,4.79327 0.16737,-0.10344 0.70891,-1.3433 1.20342,-2.75525 z m -178.10157,-1.58811 c -0.0296,-3.85031 -0.0463,-3.92556 -1.54493,-6.95077 -1.61807,-3.26633 -2.33708,-3.71336 -2.98938,-1.85856 -0.28613,0.81362 -0.0256,1.93401 1.5168,6.52297 1.02425,3.04733 1.93058,5.75225 2.01406,6.01092 0.0835,0.25867 0.35015,0.40227 0.59258,0.3191 0.31928,-0.10952 0.43254,-1.22422 0.41087,-4.04366 z m 57.54373,-2.38207 c 4.6806,-3.10681 12.67047,-6.09101 19.37837,-7.23778 12.49917,-2.13684 24.35008,-0.76486 34.76197,4.0244 3.97174,1.82692 8.62758,4.92461 9.80015,6.52038 1.06238,1.44582 1.61868,1.42337 1.28715,-0.0519 -0.14171,-0.63059 -0.24209,-1.38465 -0.22307,-1.67569 0.019,-0.29104 -0.11298,-2.43417 -0.29333,-4.7625 -0.50774,-6.55487 -0.71013,-9.96365 -0.78886,-13.28622 -0.0398,-1.68062 -0.15364,-3.00528 -0.25292,-2.9437 -0.0993,0.0616 -0.16537,-1.024 -0.14686,-2.41239 0.0557,-4.17784 -0.38626,-8.66558 -0.90031,-9.14229 -0.38265,-0.35485 -0.43279,-0.32601 -0.26513,0.15247 0.16777,0.47876 0.0278,0.55889 -0.74182,0.42469 -1.49507,-0.2607 -3.24166,-0.95114 -3.24166,-1.28145 0,-0.16573 -0.87307,-0.68744 -1.94016,-1.15935 -1.06708,-0.47192 -2.53552,-1.22688 -3.26319,-1.67769 -1.40741,-0.87192 -7.7152,-2.63107 -12.96471,-3.61565 -3.90017,-0.7315 -12.68312,-0.862 -17.63493,-0.26201 -3.74573,0.45384 -11.87785,2.083 -13.05673,2.61572 -0.38806,0.17536 -2.05493,1.10573 -3.70417,2.06749 -3.81517,2.22483 -4.93698,2.75477 -6.3633,3.00606 -1.15246,0.20303 -1.15246,0.20303 -0.90646,-5.5441 0.1353,-3.16092 0.39329,-7.25526 0.57332,-9.09852 0.18003,-1.84327 0.33222,-4.54202 0.3382,-5.99722 0.014,-3.40575 0.63515,-4.44583 3.92675,-6.57515 2.28429,-1.4777 2.64909,-1.60482 4.05315,-1.41237 1.43466,0.19664 1.57961,0.14057 2.06543,-0.79891 1.72635,-3.33838 14.09305,-6.45629 23.29923,-5.87422 6.2374,0.39436 14.02094,2.22019 17.55187,4.11725 0.72761,0.39092 1.32292,0.62838 1.32292,0.52769 0,-0.26118 5.18839,2.51366 6.93312,3.70796 0.80579,0.55157 1.80839,1.4424 2.22802,1.97961 0.76294,0.97675 0.76294,0.97675 0.54922,-0.0816 -0.11755,-0.58209 -0.23136,-1.29646 -0.2529,-1.5875 -0.0216,-0.29104 -0.21361,-0.6458 -0.42679,-0.78835 -0.28087,-0.18781 -0.28016,-0.26067 0.003,-0.26458 0.57229,-0.008 -0.19291,-3.58908 -0.89245,-4.1767 -0.30585,-0.25693 -0.33991,-0.35565 -0.0757,-0.21939 0.26423,0.13626 0.59381,0.0643 0.7324,-0.15997 0.23567,-0.38132 0.14095,-7.74552 -0.12977,-10.08962 -0.0672,-0.58208 -0.13997,-1.42489 -0.16166,-1.8729 -0.0217,-0.44802 -0.18338,-0.72561 -0.35931,-0.61688 -0.17594,0.10873 -0.23832,-0.11418 -0.13864,-0.49537 0.28263,-1.08079 -1.26907,-3.89279 -3.2282,-5.85014 -2.46213,-2.45991 -4.60104,-3.8532 -8.60035,-5.60229 -5.45057,-2.3838 -10.23449,-3.33483 -16.99349,-3.37826 -6.95291,-0.0447 -8.4009,0.03 -7.58472,0.39136 0.4836,0.2141 0.24502,0.24937 -0.75844,0.11212 -0.80519,-0.11012 -1.75769,-0.0455 -2.11666,0.14359 -0.35897,0.18909 -2.4783,0.93608 -4.70962,1.65997 -6.44,2.08928 -9.78112,3.93925 -13.61097,7.53637 -2.88275,2.70757 -3.04617,3.19617 -3.37454,10.08909 -0.40373,8.47469 -1.00566,19.58138 -1.38613,25.57639 -0.17855,2.8134 -0.47005,8.24383 -0.64778,12.06762 -0.17773,3.82378 -0.4008,7.07816 -0.49571,7.23194 -0.21301,0.34514 -0.83796,9.74684 -1.32005,19.85877 -0.19889,4.1716 -0.45159,8.45785 -0.56157,9.525 -0.19996,1.94028 -0.19996,1.94028 1.76936,-0.0475 1.08312,-1.09329 2.85604,-2.57637 3.93982,-3.29574 z m 62.25423,-11.0998 c 0,-0.18258 0.15693,-0.42895 0.34874,-0.54749 0.19997,-0.12359 0.25912,0.018 0.13864,0.33196 -0.23452,0.61116 -0.48738,0.72298 -0.48738,0.21553 z m -2.82222,-49.40346 c -0.82301,-0.63794 -0.83053,-0.67045 -0.1126,-0.48656 0.42314,0.10838 0.85472,0.41954 0.95907,0.69147 0.23979,0.62487 0.21688,0.61933 -0.84647,-0.20491 z m -31.83408,-30.24186 c 0.43883,-0.0844 1.07383,-0.0812 1.41111,0.007 0.33729,0.0883 -0.0217,0.15734 -0.79786,0.15342 -0.77611,-0.004 -1.05207,-0.0762 -0.61325,-0.16054 z m 106.377168,93.24523 c 2.62256,-0.5075 3.20536,-0.85787 2.87199,-1.72662 -0.5798,-1.51093 -4.80671,-1.5916 -7.379088,-0.14083 -1.66506,0.93907 -1.86652,1.41535 -0.81332,1.92283 1.07272,0.51687 2.436638,0.50268 5.320418,-0.0554 z M -299.67072,368.5552 c 2.15579,-0.60244 0.62758,-1.82795 -3.12885,-2.50912 -2.09565,-0.38002 -2.29144,-0.3584 -2.97872,0.32888 -0.87074,0.87074 -0.49896,1.79736 0.87546,2.18194 1.09588,0.30665 4.13221,0.30566 5.23211,-0.002 z m 180.67992,-5.1038 c 2.89495,-0.77883 3.13503,-0.92215 5.37986,-3.21161 1.29233,-1.31802 2.34969,-2.45662 2.34969,-2.53021 0,-0.33909 -3.10958,-0.0786 -5.0432,0.4224 -3.36713,0.87251 -5.32724,2.09926 -7.21102,4.51304 -1.46164,1.87288 -0.24533,2.08965 4.52467,0.80638 z m -158.95793,-0.58396 c 0,-0.88933 -4.21646,-3.75473 -7.24212,-4.92155 -2.82421,-1.08913 -5.28531,-1.33371 -5.49918,-0.54649 -0.0527,0.19402 1.55409,1.43265 3.57068,2.7525 2.75721,1.8046 4.2178,2.5204 5.8894,2.88631 2.61001,0.5713 3.28122,0.53637 3.28122,-0.17077 z m 7.57087,-5.27744 c 1.17058,-1.20179 2.00619,-2.51929 2.66853,-4.20749 0.85151,-2.17036 0.94595,-2.80715 0.80752,-5.44466 -0.17221,-3.28113 -0.8446,-4.82595 -2.1005,-4.82595 -0.95902,0 -3.35845,2.48309 -4.20853,4.35527 -1.22461,2.69703 -0.72239,11.8725 0.64985,11.8725 0.26339,0 1.2458,-0.78735 2.18313,-1.74967 z m -2.33029,-0.23466 c 0.11041,-0.55785 0.30589,-1.80803 0.43439,-2.77817 0.1285,-0.97013 0.38266,-2.00201 0.5648,-2.29305 0.24253,-0.38755 0.28377,-0.29314 0.1541,0.35278 -0.0974,0.48507 -0.28706,1.87768 -0.42151,3.0947 -0.13444,1.21701 -0.39927,2.30843 -0.58849,2.42538 -0.20907,0.12922 -0.26529,-0.18526 -0.14329,-0.80164 z m 145.54267,-0.1497 c 1.04854,-4.88918 -0.55903,-10.91306 -3.4336,-12.86638 -1.72092,-1.1694 -2.73653,-1.13085 -3.38781,0.12858 -1.56307,3.02265 -0.71663,7.97685 1.9363,11.33306 1.37769,1.7429 3.22637,3.18191 4.09136,3.18468 0.22645,7.2e-4 0.58364,-0.80025 0.79375,-1.77994 z m -1.02911,0.28195 c 0,-0.30721 -0.19843,-0.63864 -0.44097,-0.7365 -0.34539,-0.13937 -0.34299,-0.18397 0.0111,-0.20579 0.50304,-0.031 0.99403,0.93673 0.64988,1.28088 -0.12099,0.12099 -0.21998,-0.0314 -0.21998,-0.33859 z m -179.56385,-3.12514 c 0,-2.03665 -1.76762,-4.29457 -3.82362,-4.88422 -1.37783,-0.39516 -2.32865,0.34128 -1.96267,1.52015 0.2687,0.86554 3.49403,4.01478 4.55157,4.44419 0.9653,0.39195 1.23472,0.15626 1.23472,-1.08012 z m 217.840238,-0.33277 c 1.9167,-1.30108 2.59692,-2.11833 2.86064,-3.43694 0.19503,-0.97517 0.10658,-1.16024 -0.70137,-1.46742 -1.2401,-0.47149 -2.41195,0.0158 -3.41048,1.41806 -1.60672,2.25644 -2.06593,5.13569 -0.7425,4.65555 0.32043,-0.11626 1.2176,-0.64242 1.99371,-1.16925 z m -14.174468,-14.26749 c 1.11384,-0.29012 2.62403,-0.83301 3.35598,-1.20642 2.687698,-1.37117 4.952278,-4.44087 4.247548,-5.75767 -0.5463,-1.02077 -3.911208,-0.84687 -6.220398,0.32147 -2.02877,1.02647 -5.52594,4.2595 -6.54319,6.04899 -0.6373,1.12112 -0.6373,1.12112 1.2488,1.12112 1.03736,0 2.79743,-0.23737 3.91126,-0.52749 z m -188.91539,-1.45739 c -2.60399,-3.63727 -7.30319,-6.60669 -10.50972,-6.64108 -1.462,-0.0157 -1.60373,0.0596 -1.70173,0.90413 -0.0809,0.69707 0.33196,1.40143 1.6966,2.89458 0.99193,1.08533 2.38742,2.33421 3.10108,2.77527 1.48458,0.91752 4.408,1.6265 6.88461,1.66963 1.69761,0.0296 1.69761,0.0296 0.52916,-1.60253 z m 8.19395,-2.16026 c 3.20312,-3.61479 3.93217,-8.34233 2.04012,-13.22917 -0.469,-1.21133 -0.99611,-1.22098 -2.39509,-0.0438 -2.58475,2.17493 -3.2942,5.68901 -2.29592,11.37221 0.34552,1.96706 0.74923,3.57647 0.89713,3.57647 0.14789,0 0.93709,-0.75406 1.75376,-1.67569 z m -1.70261,-1.32292 c -0.007,-0.97014 0.11038,-2.55764 0.26148,-3.52778 0.27474,-1.76389 0.27474,-1.76389 0.29573,0.17639 0.0115,1.06715 -0.10613,2.65465 -0.26149,3.52778 -0.28247,1.5875 -0.28247,1.5875 -0.29572,-0.17639 z m 172.55582,-0.61736 c 1.13492,-5.20697 -0.14995,-10.77739 -2.76024,-11.96672 -1.28691,-0.58635 -1.85803,-0.15194 -2.45848,1.86997 -0.7665,2.58109 -0.69842,6.11588 0.15397,7.99395 0.59627,1.31379 3.72408,5.00595 4.24531,5.01131 0.1018,10e-4 0.47055,-1.30778 0.81944,-2.90851 z m -53.82233,-3.73177 c -0.0948,-1.32487 -0.34942,-2.71393 -0.56584,-3.08681 -0.31341,-0.53998 -0.39567,-0.0976 -0.40422,2.17367 -0.006,1.56839 0.0951,2.95746 0.22446,3.08681 0.6844,0.6844 0.90424,0.0435 0.7456,-2.17367 z m -59.18338,-0.23989 c 2.00433,-1.01567 1.95634,-0.88324 2.36399,-6.52348 0.29323,-4.05694 0.29323,-4.05694 0.84738,-2.82222 1.34517,2.99719 2.82669,2.63077 4.7278,-1.16931 0.67502,-1.34929 1.22732,-2.65062 1.22732,-2.89184 0,-0.24121 0.19843,-0.6036 0.44097,-0.80531 0.35172,-0.2925 0.37794,0.66512 0.12955,4.73126 -0.17128,2.8039 -0.23513,5.17429 -0.14189,5.26754 0.0933,0.0933 1.21224,-0.15252 2.48666,-0.54615 2.31712,-0.71568 2.31712,-0.71568 2.51089,-3.2683 0.41644,-5.48574 0.52598,-16.84011 0.16247,-16.84011 -0.19929,0 -1.50287,0.40489 -2.89685,0.89977 -2.53451,0.89977 -2.53451,0.89977 -3.31997,3.0868 -0.432,1.20287 -1.2325,3.13613 -1.77888,4.29613 -0.99344,2.10908 -0.99344,2.10908 -2.5084,-0.44098 -0.83323,-1.40253 -1.57865,-2.55006 -1.65649,-2.55006 -0.0778,0 -1.01225,0.49141 -2.07646,1.09201 -1.93494,1.09201 -1.93494,1.09201 -1.95031,3.79236 -0.008,1.4852 -0.15364,4.28786 -0.32262,6.22813 -0.16897,1.94028 -0.423,4.83747 -0.56451,6.4382 -0.29479,3.33481 -0.2836,3.34458 2.31935,2.02556 z m 54.69536,-7.62678 c -0.20533,-4.52946 -0.37332,-8.75087 -0.37332,-9.38093 0,-1.02889 -0.18861,-1.24006 -1.85208,-2.07365 -1.01865,-0.51046 -2.15328,-1.18782 -2.5214,-1.50525 -0.65375,-0.56372 -0.66386,-0.47866 -0.43459,3.65619 0.1291,2.32833 0.33624,6.66461 0.46031,9.63617 0.22558,5.40283 0.22558,5.40283 2.26097,6.4303 1.11946,0.5651 2.14223,1.20032 2.2728,1.4116 0.13058,0.21128 0.31014,0.31142 0.39902,0.22254 0.0889,-0.0889 -0.006,-3.86752 -0.21171,-8.39697 z m -12.55764,-4.40374 c -0.29467,-8.68141 -0.62213,-8.02936 3.15199,-6.27635 1.80038,0.83625 1.80038,0.83625 2.00687,-0.61736 0.29687,-2.08992 0.0113,-3.08208 -1.04395,-3.62673 -2.25169,-1.16218 -13.38549,-3.9637 -14.32292,-3.60397 -0.37565,0.14414 -0.44389,0.67106 -0.28972,2.23709 0.11092,1.12669 0.23897,2.09451 0.28455,2.1507 0.0456,0.0562 1.1746,0.30301 2.50893,0.54848 2.42607,0.44631 2.42607,0.44631 2.65236,2.54366 0.12447,1.15355 0.24353,4.59464 0.26459,7.64688 0.0432,6.26589 -0.36036,5.48474 3.21329,6.21939 0.87312,0.1795 1.64269,0.34336 1.71014,0.36414 0.0675,0.0208 0.006,-3.39289 -0.13613,-7.58593 z m -20.58969,5.66222 c 0.13879,-0.0858 0.35912,-0.9322 0.4896,-1.88093 0.21568,-1.56815 0.33492,-1.74449 1.31187,-1.93988 0.59104,-0.11821 1.91721,-0.21492 2.94703,-0.21492 2.02871,0 1.99725,-0.0331 2.4343,2.55763 0.22318,1.32292 0.22318,1.32292 2.68771,1.32292 2.91061,0 3.11703,-0.24895 2.12513,-2.56297 -0.96635,-2.25441 -3.67974,-10.05015 -4.75617,-13.66481 -1.30827,-4.39312 -1.32057,-4.40405 -4.29078,-3.81302 -2.38906,0.47539 -2.45101,0.51514 -2.66331,1.70889 -0.32854,1.84735 -3.76257,12.77489 -4.93364,15.6995 -0.56678,1.41546 -1.03051,2.76745 -1.03051,3.00442 0,0.32326 0.67758,0.36947 2.7132,0.185 1.49227,-0.13522 2.82677,-0.31605 2.96557,-0.40183 z m 2.62569,-7.89334 c -0.11211,-0.18141 -0.0409,-1.09422 0.15826,-2.02847 0.78927,-3.70251 0.73166,-3.67363 1.629,-0.8167 0.45706,1.45521 0.83403,2.76489 0.83771,2.91041 0.01,0.38461 -2.38371,0.32512 -2.62497,-0.0652 z m -98.65139,-4.43267 c 0.057,-2.52147 -0.62559,-4.11156 -2.62537,-6.11578 -2.25855,-2.26358 -2.93966,-2.27414 -3.60601,-0.0559 -1.05861,3.52409 0.27894,7.06096 3.63253,9.60544 1.75274,1.32985 1.75274,1.32985 2.15984,-0.34641 0.22391,-0.92194 0.42146,-2.31126 0.43901,-3.08737 z m 203.601328,3.1656 c 3.36737,-2.48438 5.12262,-8.43503 3.18547,-10.79944 -0.68234,-0.83283 -0.68234,-0.83283 -2.47863,0.92684 -2.37271,2.32435 -3.189028,4.06382 -3.189028,6.79541 0,2.17993 0.442158,3.96853 0.981058,3.96853 0.16114,0 0.83664,-0.4011 1.50113,-0.89134 z M -237.2029,298.02555 c 0,-0.78448 -1.35837,-2.07508 -5.46805,-5.19524 -1.74625,-1.32579 -4.74559,-3.69137 -6.66519,-5.25683 -3.46009,-2.82176 -7.04568,-5.54152 -15.37951,-11.66574 -2.3763,-1.74625 -5.98066,-4.47828 -8.0097,-6.07116 -2.02904,-1.59289 -4.96581,-3.81539 -6.52616,-4.93889 -1.56034,-1.1235 -4.40585,-3.27425 -6.32335,-4.77944 -2.77156,-2.17561 -3.48637,-2.9195 -3.48637,-3.62819 0,-1.15839 -3.62718,-4.70375 -9.01467,-8.81132 -3.97463,-3.03037 -3.99135,-3.03873 -4.89512,-2.44656 -1.02493,0.67156 -1.13213,1.05599 -0.40871,1.46567 0.27399,0.15516 1.10743,0.84062 1.85208,1.52323 0.74466,0.68262 3.25892,2.653 5.58726,4.37862 7.34584,5.4443 7.05583,4.44949 2.59107,8.88813 -3.58574,3.56476 -6.93046,7.43644 -6.60965,7.65098 0.0759,0.0508 1.80489,0.86558 3.84219,1.81069 4.83046,2.24088 15.45736,7.42 29.28055,14.27017 26.48663,13.12561 29.63333,14.48544 29.63333,12.80588 z m 75.06752,-0.0256 c 0.71988,-0.36406 3.45675,-1.55431 6.08194,-2.64501 2.62519,-1.09069 12.51224,-5.87674 21.97123,-10.63566 9.45899,-4.75893 19.29673,-9.61385 21.86164,-10.78873 2.56492,-1.17488 5.6469,-2.6003 6.84886,-3.16762 1.20196,-0.56731 2.60025,-1.18921 3.10731,-1.38199 0.92192,-0.35052 0.92192,-0.35052 0.28406,-1.49054 -0.79449,-1.41997 -9.0992,-9.69274 -10.02519,-9.98664 -0.54943,-0.17438 -0.0183,-0.70454 2.76618,-2.76132 1.89538,-1.40003 4.79553,-3.479 6.44476,-4.61993 1.64924,-1.14093 3.681908,-2.62087 4.517038,-3.28876 1.45199,-1.1612 1.49205,-1.24348 0.91546,-1.8806 -0.33163,-0.36645 -0.93991,-0.66627 -1.35173,-0.66627 -0.91499,0 -4.025548,2.21428 -9.663698,6.87917 -3.20601,2.65259 -4.40853,3.87785 -4.84721,4.93889 -0.66441,1.60698 -3.18849,3.87743 -10.21583,9.18931 -7.69022,5.81293 -15.54834,11.77158 -22.33274,16.93441 -3.55643,2.7064 -8.12668,6.14222 -10.15611,7.63516 -4.79995,3.53106 -9.13658,7.46454 -8.81077,7.9917 0.35719,0.57796 1.1009,0.50499 2.6048,-0.25557 z m 4.22165,-10.19597 c 8.84158,-6.61092 14.58828,-10.998 16.48999,-12.5886 0.97014,-0.81143 4.542,-3.54805 7.93749,-6.08138 5.80153,-4.32845 8.40826,-6.31936 14.81606,-11.31588 1.45488,-1.13445 2.69491,-2.32062 2.75563,-2.63593 0.29686,-1.54146 -17.18495,-12.93186 -18.49679,-12.05172 -0.26372,0.17693 -4.02134,5.87794 -8.35028,12.66891 -4.32894,6.79097 -9.90692,15.44285 -12.39549,19.22639 -4.76304,7.24153 -6.26896,9.54176 -9.50496,14.51842 -1.84821,2.84235 -2.3172,4.08205 -1.75643,4.64283 0.12587,0.12586 0.84131,-0.32448 1.58987,-1.00076 0.74857,-0.67628 3.86027,-3.09831 6.91491,-5.38228 z m -77.1973,4.63711 c 0.0136,-0.21998 -0.66091,-1.4106 -1.499,-2.64583 -0.83808,-1.23524 -2.05961,-3.19838 -2.71449,-4.36255 -0.65489,-1.16416 -3.26324,-5.22099 -5.79635,-9.01516 -2.5331,-3.79418 -5.16989,-7.76293 -5.85953,-8.81945 -0.68963,-1.05652 -2.21597,-3.34969 -3.39185,-5.09594 -2.44481,-3.63069 -5.74524,-8.71292 -9.81815,-15.11866 -1.55222,-2.44129 -2.90826,-4.44361 -3.01341,-4.44961 -0.87397,-0.0498 -11.87596,6.9762 -16.00456,10.22074 -2.32554,1.82757 -2.32554,1.82757 -1.52497,2.8505 1.0809,1.38113 6.17513,5.63002 10.11595,8.43731 1.77043,1.26118 4.84132,3.57621 6.8242,5.14451 1.98289,1.56831 3.92219,3.02532 4.30958,3.23782 0.38738,0.21249 4.51432,3.33798 9.17099,6.94552 8.03023,6.22105 11.12654,8.57511 16.40416,12.47176 2.2918,1.6921 2.70306,1.72136 2.79743,0.19904 z m 75.20574,-15.8278 c 2.80957,-4.26861 6.72976,-10.22174 8.71154,-13.22917 8.57967,-13.02003 13.82694,-21.61319 13.82694,-22.64357 0,-0.83497 -12.92831,-6.97356 -13.69235,-6.50136 -0.43156,0.26672 -5.35763,10.96718 -5.35763,11.63791 0,0.0944 -1.5211,3.71498 -3.38022,8.04562 -1.85912,4.33065 -3.70657,8.74703 -4.10545,9.81418 -0.39888,1.06715 -1.97356,4.61599 -3.49929,7.88631 -2.77405,5.94602 -2.77405,5.94602 -1.76372,7.23194 1.57446,2.00391 2.05656,3.21014 2.33054,5.83106 0.25385,2.42849 0.25385,2.42849 1.03759,1.05834 0.43105,-0.75358 3.08247,-4.86265 5.89205,-9.13126 z m -74.50672,7.57713 c 0.34843,-1.62465 1.51439,-4.2018 2.58969,-5.72406 0.52093,-0.73746 0.4023,-1.08044 -3.26441,-9.43779 -2.28504,-5.20816 -9.43039,-22.43768 -12.58202,-30.33889 -1.61762,-4.0554 -2.01963,-4.93889 -2.24733,-4.93889 -0.30809,0 -13.53709,6.71161 -13.85993,7.03169 -0.45196,0.44813 1.81088,4.5555 6.23246,11.31275 13.57423,20.74474 14.90847,22.76715 17.92082,27.16389 1.26288,1.84327 2.73594,4.10545 3.27346,5.02708 0.53751,0.92164 1.10781,1.6757 1.26733,1.6757 0.15951,0 0.46098,-0.79717 0.66993,-1.77148 z m 5.323,-1.60859 c 3.86973,-3.90508 10.58159,-7.09959 18.8936,-8.99241 3.0008,-0.68334 4.47654,-0.79647 10.21056,-0.78274 8.01798,0.0192 10.82441,0.53748 17.81217,3.28951 5.23984,2.06363 8.0299,3.81911 10.05728,6.32796 1.50842,1.86666 1.8906,1.82093 1.24064,-0.14846 -1.07862,-3.26827 -10.56723,-9.07715 -17.8212,-10.91006 -5.72367,-1.44623 -16.74255,-1.64969 -22.225,-0.41036 -10.46783,2.36628 -19.02198,7.58102 -20.13173,12.2726 -0.32027,1.354 0.12784,1.20657 1.96368,-0.64604 z m 2.46944,-8.62524 c 0.6791,-0.52294 1.79035,-1.23086 2.46945,-1.57316 0.67909,-0.34231 1.26868,-0.64937 1.31019,-0.68237 0.10464,-0.0832 -1.39417,-6.0395 -2.53667,-10.08083 -1.91175,-6.76233 -5.03469,-16.71764 -7.74653,-24.69444 -2.94191,-8.65353 -2.71248,-8.30385 -4.75532,-7.24746 -0.54631,0.28251 -1.37186,0.58683 -1.83456,0.67628 -0.4627,0.0894 -2.00715,0.56196 -3.43211,1.05004 -1.42496,0.48808 -2.85328,0.7867 -3.17404,0.66361 -0.54028,-0.20732 -0.53996,-0.15778 0.004,0.67307 0.32321,0.49327 0.77489,1.59688 1.00375,2.45247 0.22885,0.85558 0.78757,2.34935 1.24159,3.31949 0.45402,0.97014 1.71271,4.06577 2.79709,6.87917 1.08437,2.8134 2.36191,5.9884 2.83897,7.05555 0.47706,1.06716 1.36006,3.21028 1.96222,4.7625 0.60217,1.55222 1.38994,3.47001 1.75062,4.26176 0.36067,0.79174 0.98877,2.29987 1.39578,3.35139 0.40701,1.05152 0.9584,2.3881 1.22531,2.97019 0.26692,0.58208 0.90249,2.16958 1.41238,3.52777 1.14077,3.03867 1.8445,4.15907 2.40726,3.8326 0.23401,-0.13576 0.9811,-0.67469 1.66019,-1.19763 z m 56.4983,-4.23355 c 1.35125,-3.00133 3.65429,-8.31447 5.11785,-11.80697 1.46357,-3.4925 3.58108,-8.49313 4.70557,-11.1125 4.42447,-10.30624 5.64494,-13.37098 5.64494,-14.17509 0,-0.77359 -0.27493,-0.89933 -3.61597,-1.65369 -1.98878,-0.44904 -4.39939,-1.03123 -5.35691,-1.29376 -0.95752,-0.26254 -1.85234,-0.40849 -1.98848,-0.32435 -0.13615,0.0841 -0.34793,0.68811 -0.47063,1.34215 -0.1227,0.65405 -1.7303,5.69611 -3.57244,11.20459 -1.84214,5.50849 -4.23146,13.03168 -5.30958,16.7182 -1.07813,3.68653 -2.4343,8.1094 -3.01371,9.82861 -0.57942,1.7192 -1.0049,3.16813 -0.94552,3.21983 0.0594,0.0517 0.74297,0.41523 1.51908,0.80784 0.77611,0.39261 2.03353,1.21006 2.79426,1.81657 0.76074,0.6065 1.52976,1.05387 1.70894,0.99414 0.17918,-0.0597 1.43135,-2.56423 2.7826,-5.56557 z m -47.35283,-0.011 c 3.31189,-1.25878 8.86163,-2.37997 12.00164,-2.42465 1.63848,-0.0233 3.00753,-0.0777 3.04233,-0.12075 0.0348,-0.0431 0.17721,-9.73187 0.31647,-21.53063 0.25321,-21.45227 0.25321,-21.45227 -2.86593,-21.2379 -7.28888,0.50095 -12.15799,0.95539 -15.46637,1.44351 -3.84486,0.56727 -11.12921,2.19859 -11.55399,2.5875 -0.1458,0.13349 0.0363,1.18704 0.40476,2.34122 0.36842,1.15418 1.41127,4.47976 2.31745,7.39017 0.90618,2.91042 1.95572,6.16479 2.3323,7.23195 0.88356,2.50381 2.89803,9.25961 4.36549,14.64027 0.95152,3.48888 2.15276,7.67782 2.8579,9.96598 0.16934,0.54951 -0.0134,0.57281 2.24795,-0.28667 z m 37.35198,-5.18139 c 0.99118,-3.05594 2.13908,-6.82625 2.55091,-8.37847 0.41182,-1.55222 1.44791,-4.96535 2.30241,-7.58472 1.95424,-5.99049 6.3432,-19.03766 6.65999,-19.79833 0.55161,-1.32448 -13.67461,-3.70879 -24.40868,-4.09089 -5.73263,-0.20406 -5.73263,-0.20406 -5.73514,18.63355 -10e-4,10.36069 -0.10371,19.90917 -0.22741,21.21886 -0.22489,2.38125 -0.22489,2.38125 1.89658,2.38125 2.99098,0 7.89535,0.91695 11.20972,2.09583 1.55223,0.55211 3.07586,1.02078 3.38586,1.0415 0.42486,0.0284 1.00733,-1.33031 2.36576,-5.51858 z M -319.60394,253.0418 c 2.11487,-3.18619 5.04398,-5.64849 8.30585,-6.98215 3.24049,-1.32492 3.07404,-0.70897 1.75669,-6.50045 -0.74825,-3.28952 -1.39418,-9.09181 -1.38714,-12.46037 0.005,-2.22714 1.05077,-7.94139 2.189,-11.95706 0.28873,-1.01865 0.41815,-1.85208 0.2876,-1.85208 -0.67461,0 -7.1675,9.78309 -9.34561,14.08139 -1.53158,3.02243 -3.34454,8.03253 -4.35109,12.02416 -0.86396,3.42619 -0.93485,4.27335 -0.94464,11.28889 -0.0125,8.96676 0.19955,9.99805 1.36823,6.65349 0.44651,-1.27782 1.40101,-3.21094 2.12111,-4.29582 z m 241.227548,3.96595 c 0.4702,-2.09607 0.45619,-10.2494 -0.0215,-12.49723 -1.89456,-8.91563 -5.1441,-17.32105 -8.9444,-23.13604 -1.98002,-3.02969 -4.21777,-6.03139 -4.37738,-5.87178 -0.0694,0.0695 0.20828,1.22711 0.61716,2.5726 1.10471,3.63517 1.27162,15.27035 0.29804,20.77626 -0.37598,2.12632 -0.84058,4.31632 -1.03243,4.86667 -0.28866,0.82804 -0.24455,1.03149 0.25576,1.17954 1.99408,0.59009 4.10521,2.02458 6.48144,4.40404 3.07311,3.07729 4.23547,4.75875 5.0849,7.35574 0.66492,2.03286 1.23365,2.15443 1.63838,0.3502 z M -303.18222,241.09888 c 3.62838,-6.96119 12.21763,-13.83055 19.40241,-15.5173 1.8489,-0.43406 3.42206,-0.83159 3.49591,-0.88339 0.0738,-0.0518 -0.13504,-1.16634 -0.4642,-2.47675 -0.78997,-3.14486 -1.07816,-6.59617 -1.06987,-12.81231 0.0119,-8.91616 1.64697,-16.93077 4.25596,-20.86133 2.31541,-3.48826 2.06854,-3.73553 -1.79783,-1.80072 -4.47765,2.24071 -8.87092,5.5391 -13.26882,9.96199 -11.01641,11.07903 -14.26524,18.16427 -14.235,31.0445 0.008,3.4774 0.236,6.81657 0.62583,9.17222 0.98836,5.97257 1.64807,6.87354 3.05561,4.17309 z m 207.032798,0.50122 c 0.96166,-2.45018 1.44375,-5.1611 1.01261,-5.69425 -0.3356,-0.41502 -0.33239,-0.47046 0.0151,-0.26168 0.26092,0.15676 0.45167,0.0764 0.46719,-0.19686 0.0144,-0.25399 0.12094,-0.85867 0.23672,-1.34374 0.46985,-1.96842 0.21579,-10.41764 -0.39779,-13.22916 -0.84255,-3.86072 -2.57025,-9.09247 -3.84445,-11.64167 -4.182978,-8.36853 -13.080488,-16.93453 -23.950488,-23.05814 -1.93675,-1.09106 -1.99307,-1.10136 -1.76389,-0.32228 0.13021,0.44263 0.76799,1.72351 1.4173,2.84641 2.81723,4.87207 4.5805,15.21797 4.10089,24.06179 -0.33572,6.19071 -0.38642,6.62815 -1.04124,8.98452 -0.29482,1.06093 -0.53604,2.10545 -0.53604,2.32117 0,0.21571 1.30968,0.67098 2.91041,1.0117 4.06315,0.86486 7.14533,2.239 10.23097,4.56132 3.83148,2.88366 6.67928,6.19762 8.458828,9.84346 0.8287,1.69779 1.68591,3.08704 1.9049,3.08722 0.219,1.8e-4 0.56952,-0.43623 0.77894,-0.96981 z M -265.7779,239.98533 c 0,-0.36692 -1.13469,-2.49588 -2.52155,-4.73101 -1.38685,-2.23513 -2.8744,-4.71811 -3.30567,-5.51773 -2.201,-4.08091 -2.2096,-4.08836 -3.8502,-3.34086 -0.89118,0.40605 -0.89118,0.40605 -0.10479,1.85209 0.43251,0.79531 0.99883,1.66982 1.25849,1.94334 0.25966,0.27352 0.87275,1.14664 1.36242,1.94028 0.92697,1.50239 2.31936,3.67639 4.36292,6.81203 0.91318,1.40117 1.39103,1.82547 1.99919,1.77514 0.52535,-0.0435 0.79919,-0.29474 0.79919,-0.73328 z m 132.64443,-1.20811 c 0.87312,-1.11454 2.07839,-2.74113 2.67837,-3.61463 2.84917,-4.14804 5.43551,-8.07736 5.43551,-8.25793 0,-0.20453 -2.54167,-1.35233 -2.62226,-1.18419 -0.0245,0.0511 -0.32257,0.70394 -0.66243,1.45087 -0.33987,0.74692 -2.04409,3.49781 -3.78715,6.11309 -3.62076,5.43254 -4.33184,6.698 -4.03425,7.1795 0.48745,0.78871 1.50022,0.21781 2.99221,-1.68671 z m -99.8361,-10.51171 c 0,-0.10649 -0.78116,-2.52742 -1.73591,-5.37986 -0.95476,-2.85243 -2.01209,-6.21812 -2.34963,-7.4793 -0.33755,-1.26118 -0.64712,-2.33868 -0.68794,-2.39446 -0.0609,-0.0832 -1.80971,0.58412 -2.22232,0.84804 -0.31063,0.19869 4.29427,13.35762 4.9546,14.15823 0.35419,0.42943 2.0412,0.63386 2.0412,0.24735 z m 68.40331,-3.95288 c 3.33918,-8.9159 4.0089,-11.09925 3.5053,-11.42766 -0.25911,-0.16898 -0.85382,-0.2661 -1.32157,-0.21584 -0.74871,0.0804 -0.97215,0.49233 -1.86768,3.44278 -2.03006,6.6883 -2.75265,8.85919 -3.38332,10.16451 -0.70308,1.45521 -0.44879,2.13467 0.80979,2.16371 0.58146,0.0134 0.97852,-0.71254 2.25748,-4.1275 z m 40.65999,-3.08597 c 2.32528,-9.12931 1.47752,-22.18922 -1.91731,-29.53689 -3.80371,-8.23264 -12.16677,-15.99616 -21.58467,-20.03724 -4.18991,-1.79783 -11.42131,-3.86375 -13.5411,-3.86853 -1.18118,-0.003 -1.18118,-0.003 -0.42662,1.14387 3.63588,5.52461 5.36661,11.72422 5.88443,21.07848 0.27454,4.95959 -0.35265,12.94895 -1.31177,16.70961 -0.38923,1.52618 -0.65101,2.83157 -0.58173,2.90085 0.0693,0.0693 0.75205,-0.0484 1.51725,-0.26158 1.85041,-0.51546 9.23717,-0.14838 11.94672,0.59368 2.48433,0.68038 7.58512,3.18774 10.41619,5.12022 2.41251,1.64676 4.71762,4.04156 6.55753,6.81266 0.80749,1.21616 1.55434,1.979 1.87674,1.91691 0.33972,-0.0654 0.76541,-1.00576 1.16434,-2.57204 z m -150.51321,0.88035 c 1.6213,-2.33955 5.95692,-6.20466 8.87812,-7.91466 2.65931,-1.5567 5.84043,-2.9076 8.7593,-3.71975 2.25021,-0.62609 9.3858,-0.87392 11.29813,-0.39239 0.91524,0.23046 1.74008,0.34302 1.83297,0.25013 0.0929,-0.0929 -0.28267,-2.36223 -0.83459,-5.04297 -0.90649,-4.40288 -1.00074,-5.52205 -0.97501,-11.57685 0.0312,-7.33126 0.4237,-10.15181 2.2924,-16.47182 1.078,-3.64582 2.16958,-5.92683 3.7482,-7.83234 1.47049,-1.77501 0.62076,-1.89181 -4.46056,-0.61315 -11.67114,2.93691 -21.21567,8.41588 -26.67688,15.31366 -5.61258,7.08896 -8.25882,15.65472 -7.78375,25.19562 0.39306,7.89372 1.57024,14.21775 2.64656,14.21775 0.16265,0 0.73646,-0.63596 1.27511,-1.41323 z m 75.31658,-6.13375 c 0,-8.13525 0.0378,-7.97524 -1.88378,-7.97524 -0.75944,0 -0.76902,0.0776 -0.88572,7.17412 -0.10396,6.32134 -0.0482,7.24389 0.46901,7.76111 0.32285,0.32284 0.97253,0.58699 1.44374,0.58699 0.85675,0 0.85675,0 0.85675,-7.54698 z m -37.69515,-8.14322 c 2.43261,-2.25217 4.17914,-3.33069 8.00998,-4.94633 3.51557,-1.48269 6.31314,-1.92972 10.98795,-1.75581 6.37924,0.23732 10.45223,1.29627 15.20437,3.95304 0.11623,0.065 0.1956,-9.84866 0.17639,-22.0303 -0.0349,-22.14846 -0.0349,-22.14846 -6.20854,-22.10429 -7.18303,0.0514 -11.78014,0.6738 -16.78283,2.27226 -4.484,1.43272 -6.28051,2.35248 -8.50973,4.35674 -3.52056,3.16529 -6.71441,11.09184 -7.70395,19.11986 -0.72197,5.85713 -0.61773,8.88135 0.54435,15.79364 1.07604,6.40054 1.29501,7.27306 1.82531,7.27306 0.20353,0 1.30904,-0.86934 2.4567,-1.93187 z m 76.03237,0.1085 c 0.84485,-2.53326 1.6227,-9.66795 1.58965,-14.5808 -0.0251,-3.73948 -0.24216,-5.96695 -0.89359,-9.17222 -1.29444,-6.36905 -1.74345,-7.85423 -3.30979,-10.94769 -2.6557,-5.24485 -5.94371,-8.00312 -11.93166,-10.00926 -4.84147,-1.62204 -8.75832,-2.19451 -16.47035,-2.40721 -6.96602,-0.19213 -6.96602,-0.19213 -6.94294,22.09308 0.0231,22.28519 0.0231,22.28519 1.85074,21.26718 1.63926,-0.91308 3.41062,-1.6002 7.32076,-2.83979 1.86389,-0.59088 10.62793,-0.49593 13.38051,0.14497 4.60844,1.07301 10.22714,3.51437 10.78168,4.68471 0.39796,0.83987 3.36071,3.21511 3.8586,3.09344 0.19403,-0.0474 0.5389,-0.6443 0.76639,-1.32641 z m -124.5808,217.02948 c -0.7299,-0.80653 -0.81987,-2.2477 -0.18787,-3.00922 0.65714,-0.7918 2.23815,-0.6465 3.1144,0.28624 0.98398,1.04739 0.97731,2.17123 -0.017,2.86767 -1.06321,0.7447 -2.15372,0.69047 -2.90953,-0.14469 z m 169.73018,-0.65683 c -1.21341,-1.34081 -0.25336,-3.5882 1.53282,-3.5882 1.0757,0 2.11667,1.06699 2.11667,2.16956 0,0.7161 -1.60795,2.06378 -2.46234,2.06378 -0.33182,0 -0.86604,-0.29032 -1.18715,-0.64514 z"
       id="path2" /></g></svg>
